<?xml version="1.0" standalone="no"?>
<!DOCTYPE svg PUBLIC "-//W3C//DTD SVG 20010904//EN"
 "http://www.w3.org/TR/2001/REC-SVG-20010904/DTD/svg10.dtd">
<svg version="1.0" xmlns="http://www.w3.org/2000/svg"
 width="720.000000pt" height="720.000000pt" viewBox="0 0 720.000000 720.000000"
 preserveAspectRatio="xMidYMid meet">

<g transform="translate(0.000000,720.000000) scale(0.100000,-0.100000)"
fill="#000000" stroke="none">
<path d="M3745 6880 c-4 -6 -10 -8 -14 -6 -4 3 -25 -12 -46 -34 -21 -22 -41
-37 -45 -35 -4 2 -23 -10 -43 -26 -39 -32 -50 -22 -21 20 16 22 15 22 -3 10
-11 -6 -24 -24 -30 -40 -8 -19 -17 -27 -32 -26 -27 2 -27 13 -1 20 11 3 20 11
20 17 0 9 -4 9 -17 -1 -9 -8 0 11 21 41 l37 55 -65 -67 c-35 -37 -66 -73 -69
-80 -2 -7 -8 -10 -12 -5 -5 4 -3 13 3 19 17 17 15 33 -3 18 -10 -9 -15 -9 -15
-1 0 6 5 11 11 11 5 0 8 4 4 10 -3 5 11 27 31 50 44 48 40 51 -12 9 -33 -27
-114 -69 -131 -69 -3 0 -1 6 4 13 6 6 13 23 16 37 6 24 5 24 -21 -6 -15 -17
-35 -34 -45 -37 -16 -6 -16 -4 -2 23 13 25 13 29 1 24 -8 -3 -22 -21 -30 -39
-10 -20 -28 -37 -46 -44 l-31 -10 21 26 c29 38 17 40 -21 4 -32 -31 -62 -44
-40 -17 6 7 9 21 5 29 -5 15 -8 15 -29 1 -13 -9 -29 -31 -35 -50 -6 -19 -16
-34 -21 -34 -13 0 18 60 49 92 14 15 28 25 32 23 4 -3 13 2 20 10 8 10 9 15 2
15 -16 0 -85 -41 -99 -58 -18 -21 -30 -5 -15 18 18 30 -6 25 -30 -5 -25 -33
-78 -61 -78 -43 0 8 -5 6 -11 -4 -5 -10 -18 -18 -27 -18 -12 1 -5 11 23 35 22
18 37 37 33 40 -3 4 -30 -18 -60 -47 -62 -62 -107 -98 -69 -55 22 25 19 38 -5
20 -5 -5 0 0 11 11 11 10 19 23 17 28 -1 5 2 17 8 28 7 14 -4 10 -48 -16 -66
-40 -107 -73 -114 -94 -3 -8 -8 -12 -12 -8 -4 3 -3 16 4 27 13 25 13 25 -38 7
-22 -8 -43 -12 -46 -9 -3 4 -6 1 -6 -5 0 -20 -38 -34 -60 -22 -16 8 -20 8 -20
-3 0 -17 -40 -70 -47 -63 -3 3 -15 -7 -28 -22 l-23 -26 0 29 c0 17 10 41 22
54 l21 25 -32 -22 c-42 -30 -54 -28 -20 3 15 14 27 28 27 31 0 10 -45 -31
-125 -113 -43 -45 -81 -81 -83 -79 -5 6 42 79 62 95 9 7 16 18 16 24 0 5 -19
-13 -42 -42 -41 -50 -77 -70 -64 -34 6 14 2 12 -17 -5 -32 -31 -47 -28 -48 11
0 17 -3 25 -6 17 -6 -15 -25 -30 -40 -32 -5 0 -30 -19 -57 -41 -44 -37 -48
-39 -41 -17 l7 25 -18 -25 c-28 -41 -67 -80 -74 -75 -4 3 -36 -24 -71 -60 -34
-35 -65 -63 -67 -61 -2 2 5 21 16 43 11 21 17 43 15 50 -2 6 3 25 12 42 8 17
11 31 6 31 -10 0 -12 -5 -52 -120 -45 -127 -50 -140 -63 -140 -6 0 -24 -21
-39 -47 -15 -25 -30 -43 -34 -40 -3 4 2 18 11 32 17 25 16 25 -3 13 -11 -6
-22 -21 -25 -32 -3 -11 -8 -17 -11 -14 -4 4 3 28 14 54 29 65 14 47 -29 -34
-19 -36 -41 -68 -48 -70 -8 -2 -10 2 -5 15 3 10 3 15 -1 11 -7 -5 -13 -26 -15
-50 -1 -4 -14 -23 -31 -41 -16 -19 -27 -37 -25 -41 3 -3 2 -4 -2 -1 -3 3 -13
-1 -21 -8 -20 -15 -11 1 31 58 l29 40 -43 -45 c-23 -25 -39 -36 -35 -26 5 16
4 17 -8 7 -8 -7 -33 -50 -56 -97 -23 -46 -44 -84 -47 -84 -13 0 11 80 38 130
19 34 22 46 10 30 -11 -14 -21 -29 -21 -33 0 -5 -4 -6 -9 -3 -5 4 -12 -8 -16
-26 -4 -18 -18 -53 -32 -76 -14 -24 -25 -59 -25 -78 0 -39 -33 -69 -41 -36 -2
9 -4 0 -4 -20 -1 -40 -33 -101 -33 -62 0 11 6 26 13 33 10 10 9 11 -4 6 -9 -3
-19 -23 -23 -43 -7 -41 -22 -70 -31 -60 -3 3 1 24 8 47 8 22 10 38 4 34 -10
-6 -5 104 8 157 3 14 -2 7 -10 -15 -19 -48 -38 -165 -36 -221 1 -30 -5 -50
-21 -70 -13 -16 -31 -45 -42 -64 -10 -19 -24 -39 -31 -45 -21 -18 -64 -124
-52 -128 7 -2 -1 -17 -20 -35 -42 -43 -76 -99 -80 -134 -4 -37 -18 -65 -52
-102 -17 -19 -20 -27 -10 -23 15 5 15 1 -1 -44 -13 -34 -37 -68 -77 -107 -66
-63 -119 -130 -111 -138 3 -3 15 10 26 28 31 49 170 183 180 173 3 -2 -4 -21
-14 -42 -9 -21 -17 -50 -16 -64 1 -14 -7 -38 -19 -53 -27 -35 -34 -28 -13 13
9 18 13 35 10 38 -3 3 -9 -3 -12 -13 -4 -10 -18 -43 -31 -73 -12 -29 -23 -55
-23 -58 0 -2 16 12 35 33 19 20 38 34 42 30 8 -8 -56 -76 -71 -76 -6 0 -19
-12 -28 -28 -10 -15 -34 -46 -53 -70 -19 -24 -35 -49 -34 -55 0 -7 6 -4 12 7
19 29 59 77 62 74 7 -6 -24 -120 -36 -134 -10 -13 -10 -17 0 -24 10 -5 11 -20
6 -50 -9 -56 -5 -51 -132 -164 -46 -42 -90 -96 -76 -95 4 0 24 22 45 48 20 27
51 59 69 72 34 24 33 18 -13 -45 -15 -21 -25 -42 -23 -46 3 -4 -2 -24 -10 -44
-8 -19 -15 -41 -14 -48 0 -7 10 12 21 42 23 61 67 135 74 127 3 -3 -7 -24 -22
-46 -44 -67 -22 -56 31 15 27 36 51 60 53 54 5 -13 -45 -91 -65 -103 -7 -5
-13 -24 -12 -45 1 -34 1 -35 9 -11 16 54 66 108 52 57 -7 -29 14 -15 39 26 29
48 22 10 -8 -41 -23 -39 -28 -43 -34 -27 -7 18 -8 18 -8 -1 -1 -12 -19 -39
-42 -60 -46 -45 -99 -122 -99 -143 0 -8 -9 -27 -21 -44 -12 -16 -19 -31 -16
-34 2 -3 14 10 26 28 24 37 67 88 76 88 13 0 3 -23 -30 -69 -19 -26 -35 -52
-35 -57 0 -5 16 16 36 45 32 47 38 52 49 38 9 -12 14 -14 23 -5 18 18 16 -84
-3 -108 -24 -32 -16 -41 10 -9 45 55 39 17 -10 -60 -17 -26 -17 -28 -2 -16 22
17 22 3 1 -47 -9 -20 -17 -48 -19 -62 -2 -14 -11 -54 -19 -90 -14 -59 -14 -97
0 -54 22 71 86 185 98 174 3 -3 1 -23 -4 -44 -5 -23 -5 -49 1 -64 8 -21 4 -32
-30 -76 -21 -28 -44 -62 -50 -76 -10 -21 -9 -22 1 -6 7 10 29 39 48 65 l35 46
3 -38 c2 -25 -2 -45 -12 -56 -19 -21 -21 -35 -4 -25 8 4 10 3 5 -2 -5 -5 -14
-9 -20 -9 -7 -1 -11 -7 -9 -14 2 -8 -6 -23 -16 -35 -10 -11 -22 -28 -26 -36
-4 -8 2 -4 13 10 17 21 20 21 14 5 l-6 -20 22 20 c13 11 32 37 42 57 11 21 24
38 29 38 19 0 10 -43 -21 -97 -17 -29 -28 -60 -25 -68 6 -17 -2 -45 -14 -45
-5 0 -11 12 -13 28 -5 31 -7 -4 -10 -175 l-2 -113 16 49 c22 67 49 108 60 90
9 -15 11 -14 27 16 11 20 11 20 12 0 0 -19 -22 -81 -59 -170 -11 -27 -15 -52
-10 -75 6 -31 7 -32 8 -7 1 36 23 88 44 106 15 12 15 11 1 -18 -9 -17 -12 -40
-9 -51 4 -13 -1 -34 -14 -55 -21 -37 -18 -47 5 -17 13 15 13 14 6 -8 -11 -29
-4 -100 9 -100 5 0 9 -8 9 -17 0 -10 11 11 23 47 29 80 49 119 54 103 3 -7 -1
-21 -7 -33 -13 -24 -42 -131 -37 -136 2 -2 18 10 36 27 43 39 51 30 17 -19
-35 -51 -33 -65 3 -22 16 19 32 32 37 28 4 -5 -1 -18 -12 -30 -10 -12 -13 -18
-6 -14 16 9 15 1 -3 -34 -8 -16 -11 -30 -6 -32 4 -2 3 -37 -2 -79 -10 -76 -2
-189 12 -189 5 0 5 18 1 39 -8 45 -5 145 6 193 6 29 8 30 15 13 6 -16 8 -12 8
17 1 42 9 68 22 68 11 0 -1 -103 -14 -111 -5 -4 -3 -9 4 -11 12 -4 12 -9 1
-34 -9 -19 -10 -30 -3 -32 6 -2 11 -22 12 -45 l1 -42 11 35 c11 35 11 35 15 8
4 -33 9 -34 29 -11 13 17 14 16 9 -7 -13 -53 -19 -185 -8 -175 5 6 12 19 14
30 2 11 10 19 16 18 7 -2 12 6 12 18 0 11 7 28 16 36 14 14 15 12 8 -23 -3
-21 -10 -43 -14 -49 -4 -5 -11 -41 -15 -80 -4 -38 -11 -79 -17 -90 l-9 -20 18
20 c10 11 29 29 43 40 20 17 23 18 17 3 -4 -12 -1 -18 9 -18 11 0 13 6 9 21
-5 15 -4 19 5 14 7 -4 10 -19 6 -36 -7 -37 -1 -37 19 1 21 40 35 38 35 -5 0
-22 -12 -54 -35 -89 -19 -30 -35 -65 -35 -78 1 -21 2 -21 17 7 9 17 24 36 34
43 10 7 25 19 33 27 34 34 32 15 -11 -93 -13 -35 -22 -66 -20 -69 3 -2 10 12
17 31 6 20 16 36 21 36 6 0 7 -4 4 -10 -3 -5 -1 -45 6 -87 7 -43 12 -98 12
-123 l-1 -45 18 55 c10 30 23 56 29 58 6 2 11 13 11 25 0 12 10 38 22 57 l23
35 3 -28 c2 -16 -1 -41 -7 -57 -5 -17 -6 -30 0 -32 5 -2 10 -36 11 -75 2 -72
2 -73 21 -52 29 31 41 18 48 -47 3 -32 6 -50 7 -39 1 11 7 27 13 35 12 18 8
-103 -5 -135 -6 -17 -4 -16 12 4 l19 24 6 -22 c3 -12 -1 -42 -10 -67 -8 -25
-13 -47 -10 -50 3 -3 8 5 12 18 20 71 48 129 58 119 6 -6 15 -11 20 -11 5 0 1
8 -9 18 -16 16 -16 17 -1 20 9 2 17 12 17 23 0 10 5 19 11 19 7 0 9 -8 4 -22
-4 -13 -7 -34 -6 -48 0 -14 -14 -56 -30 -93 -17 -38 -29 -71 -25 -74 3 -3 8 3
12 13 4 10 15 39 26 64 15 35 21 41 28 30 7 -12 10 -9 10 13 0 15 5 27 10 27
15 0 12 -63 -5 -103 -8 -20 -15 -44 -14 -54 0 -10 7 3 15 30 8 26 18 47 23 47
10 0 61 -111 61 -134 0 -9 5 -16 10 -16 6 0 10 11 10 25 0 14 5 25 10 25 6 0
10 -8 10 -17 0 -10 5 -25 10 -33 7 -10 8 5 3 48 -4 41 -2 62 5 62 6 0 14 -9
17 -20 8 -24 55 -28 55 -5 0 8 4 15 10 15 5 0 7 -7 4 -15 -4 -8 -1 -15 6 -15
7 0 9 -8 5 -22 -4 -16 -3 -19 3 -9 14 20 22 1 29 -74 3 -37 9 -61 13 -55 4 6
5 33 2 59 -2 30 0 51 7 55 6 4 11 2 11 -5 0 -7 7 -20 16 -30 13 -15 14 -24 5
-51 -9 -28 -9 -31 3 -15 7 9 16 17 19 17 11 0 39 -90 34 -110 -3 -12 0 -20 7
-20 6 0 17 -14 24 -32 6 -17 14 -29 17 -27 3 3 -3 24 -12 47 -17 44 -10 72 9
37 11 -19 11 -19 19 0 4 11 8 27 8 35 1 13 0 13 -9 0 -8 -13 -10 -13 -10 1 0
25 12 30 26 11 12 -16 13 -15 14 5 0 28 10 53 21 53 18 0 8 -48 -22 -104 -17
-31 -28 -60 -25 -63 3 -4 6 -1 6 5 0 6 12 23 27 36 l27 26 18 -75 c18 -75 45
-141 54 -132 3 3 -2 19 -10 36 -11 20 -16 55 -15 103 0 74 2 74 29 0 7 -18 15
-31 17 -28 3 2 0 14 -7 25 -8 17 -8 26 4 43 l15 21 6 -26 c4 -14 4 -30 1 -35
-3 -5 4 -12 15 -15 17 -5 20 -11 15 -30 -4 -17 -1 -24 9 -24 9 0 15 10 16 26
1 23 3 22 19 -14 11 -24 17 -50 13 -64 -4 -18 -3 -22 7 -16 10 6 12 2 6 -16
-3 -13 -8 -44 -11 -69 -4 -40 -3 -38 13 20 31 107 35 127 23 110 -20 -29 -22
-1 -2 37 l21 38 -2 -30 c-3 -49 4 -132 9 -110 10 44 12 47 26 33 7 -7 18 -33
24 -58 l11 -45 1 35 2 35 15 -27 c21 -40 25 -34 7 12 -18 45 -11 64 12 34 15
-19 15 -42 0 -144 l-5 -35 14 40 c8 22 14 36 15 31 1 -5 7 -3 15 3 11 10 15 8
19 -6 3 -10 5 -2 6 17 1 27 4 32 12 20 8 -12 10 -8 8 15 0 17 0 32 1 35 1 3 3
13 5 23 5 27 15 33 25 17 7 -11 10 -6 10 18 0 50 18 38 22 -15 2 -34 -3 -60
-20 -97 -21 -45 -25 -49 -33 -31 -7 15 -7 12 -3 -12 3 -17 1 -49 -5 -69 -11
-39 -7 -62 5 -28 3 10 10 28 14 39 5 11 12 34 15 52 3 17 16 38 28 46 22 14
22 13 22 -23 0 -37 0 -37 22 -23 13 9 23 21 23 27 0 7 7 21 16 32 14 18 15 17
9 -19 -4 -28 -3 -37 5 -32 11 7 8 -36 -7 -87 -2 -10 0 -18 6 -18 6 0 11 12 11
28 0 29 23 111 38 139 7 12 13 4 27 -38 21 -67 43 -116 54 -124 5 -3 12 -19
16 -35 4 -17 11 -30 17 -30 6 0 8 11 4 27 -16 69 -18 103 -7 103 6 0 11 -6 11
-14 0 -7 7 -20 17 -27 15 -13 15 -12 5 8 -17 31 -15 43 8 43 12 0 20 -7 20
-17 1 -10 9 -35 19 -57 17 -36 18 -37 26 -15 21 62 23 63 24 7 1 -44 5 -58 16
-58 11 0 13 8 8 32 -4 22 -3 29 5 24 7 -4 13 -1 13 8 3 29 4 34 11 41 3 3 11
-11 18 -32 7 -21 17 -42 22 -48 6 -6 6 0 0 15 -7 18 -6 33 3 50 12 22 13 19
20 -38 4 -34 10 -62 15 -62 4 0 4 19 0 43 -8 39 -3 67 7 40 8 -22 23 -14 23
12 0 25 10 32 24 17 4 -4 13 -7 19 -7 7 0 22 -21 34 -48 13 -26 27 -47 33 -47
5 0 0 16 -12 36 -20 34 -20 38 -5 49 9 7 17 20 17 29 0 9 5 16 11 16 8 0 9
-15 4 -46 -6 -39 -4 -46 8 -41 11 4 18 -5 25 -31 l10 -37 1 41 c1 22 6 51 13
65 12 25 13 25 40 10 23 -13 28 -23 28 -56 0 -30 3 -36 10 -25 9 13 12 13 24
-3 20 -26 26 -21 15 15 -5 18 -9 42 -9 53 0 17 2 18 11 5 8 -12 10 -8 8 15 -3
59 1 86 11 80 6 -3 10 -36 10 -72 l0 -66 20 23 c18 21 20 21 26 5 6 -15 9 -15
20 6 11 19 13 21 14 6 0 -10 9 -30 19 -45 10 -15 22 -51 25 -81 3 -30 11 -59
17 -65 9 -8 10 -6 5 9 -14 39 -19 145 -8 145 12 0 16 -12 27 -83 8 -48 21 -48
18 1 -4 56 5 86 21 73 10 -8 11 -4 8 21 -3 21 -1 29 7 24 7 -4 9 -2 5 7 -3 8
-1 18 5 21 13 8 27 -44 15 -53 -5 -3 -10 -31 -11 -61 l-1 -55 10 52 c5 29 13
53 18 53 5 0 14 -27 21 -60 6 -33 15 -60 20 -60 4 0 3 15 -2 32 -16 57 -10
138 11 138 7 0 22 -45 24 -72 2 -18 16 -18 16 0 0 11 5 24 10 27 6 4 8 10 6
14 -3 4 0 13 5 21 6 10 7 -27 2 -99 -4 -77 -3 -112 4 -108 6 4 8 18 6 32 -3
14 -2 46 2 72 7 47 7 47 21 23 7 -14 13 -38 14 -53 0 -15 10 -38 21 -50 l21
-22 -7 25 c-4 14 -10 31 -12 38 -3 6 -1 12 5 12 5 0 13 15 16 34 11 56 30 50
67 -20 19 -35 39 -62 45 -60 6 3 17 -7 23 -21 7 -14 14 -23 17 -20 3 3 -2 20
-11 37 -20 39 -24 153 -5 175 8 10 9 15 1 15 -6 0 -11 5 -11 11 0 6 6 9 14 6
9 -4 17 1 19 11 3 13 5 11 6 -5 0 -12 -4 -34 -9 -49 -6 -15 -8 -29 -6 -32 3
-3 10 7 15 21 11 28 33 47 30 26 -3 -26 3 -74 8 -61 2 6 9 10 14 6 5 -3 9 2 9
10 0 9 4 16 10 16 5 0 11 -28 13 -62 l3 -63 3 70 c3 69 3 70 17 40 13 -26 14
-26 9 -5 -15 67 -18 120 -5 120 7 0 10 -6 7 -14 -3 -7 -1 -18 4 -23 6 -6 13
-35 16 -66 8 -78 33 -87 33 -12 0 58 14 81 24 40 4 -14 11 -25 17 -25 6 0 8 9
4 20 -4 11 -2 20 4 20 6 0 8 8 6 17 -3 10 1 5 9 -12 8 -16 15 -36 16 -42 0 -7
5 -13 11 -13 7 0 8 7 4 18 -14 33 -27 103 -20 110 10 10 23 -17 30 -62 3 -23
12 -52 20 -66 18 -32 18 -26 0 34 -16 51 -13 77 4 35 7 -17 8 -4 4 44 -4 43
-2 67 4 67 22 0 30 -83 12 -123 -9 -19 -7 -32 6 -61 21 -44 30 -43 13 2 -8 21
-9 40 -3 58 15 42 33 40 41 -3 8 -42 31 -83 46 -83 7 0 8 19 4 50 -4 32 -3 50
4 50 5 0 10 7 10 16 0 33 26 -4 39 -56 7 -27 16 -50 21 -50 4 0 2 21 -6 47
-16 54 -17 66 -5 59 5 -4 12 -24 16 -46 6 -38 32 -100 40 -100 2 0 -2 19 -10
41 -17 48 -20 99 -5 99 6 0 10 -5 10 -11 0 -5 5 -7 10 -4 6 3 10 -4 10 -17 0
-17 3 -19 9 -9 7 11 13 7 25 -18 9 -17 20 -31 24 -31 4 0 15 -20 25 -45 11
-25 24 -45 29 -45 7 0 7 4 1 13 -10 11 -53 122 -52 132 0 3 -3 21 -7 41 -9 50
1 52 26 5 23 -46 33 -53 24 -16 -4 15 -2 25 5 25 18 0 31 -37 32 -92 0 -29 4
-62 9 -73 6 -13 7 -1 3 35 -6 63 13 152 28 129 5 -8 9 -27 9 -43 0 -16 2 -27
5 -24 7 6 7 46 1 86 -5 29 -4 31 9 18 8 -8 16 -27 16 -43 l1 -28 8 30 c4 17 8
25 9 18 0 -6 7 -18 14 -25 7 -7 18 -22 25 -33 9 -15 11 -16 12 -4 0 8 -7 24
-15 35 -23 30 -19 52 5 26 12 -12 22 -22 24 -22 2 0 -4 29 -12 65 -9 35 -13
67 -10 71 13 12 28 -8 28 -36 0 -16 5 -32 10 -35 6 -4 8 -23 5 -43 -3 -20 -2
-31 1 -24 9 19 21 14 28 -13 4 -14 11 -25 16 -25 14 0 13 6 -6 42 -11 21 -15
46 -11 74 3 32 1 41 -9 37 -9 -3 -11 2 -7 16 3 12 8 21 12 21 10 0 31 -52 31
-76 0 -12 7 -24 15 -28 12 -4 13 -2 6 12 -13 25 -18 111 -6 112 6 0 15 -36 22
-80 6 -45 15 -85 19 -88 6 -7 1 50 -13 142 -4 28 -3 37 5 32 6 -4 14 -28 18
-55 3 -26 15 -58 25 -72 l19 -24 -11 33 c-6 18 -9 41 -6 52 3 11 1 18 -3 15
-5 -3 -14 11 -19 32 -14 48 -14 66 -1 58 6 -3 10 -16 10 -28 1 -22 1 -22 16
-2 15 19 16 19 12 -13 -3 -17 -1 -32 4 -32 4 0 8 -28 8 -62 0 -35 4 -69 9 -76
5 -8 6 9 4 40 -5 50 -4 52 11 33 l16 -20 -6 20 c-4 14 4 9 25 -15 36 -42 37
-40 11 28 -22 56 -26 102 -10 102 6 0 10 -6 10 -12 1 -8 6 -6 14 4 14 19 19
16 66 -41 24 -29 26 -14 4 32 -13 27 -14 41 -6 63 l10 29 1 -32 c1 -18 6 -33
12 -33 5 0 9 8 8 18 -3 35 1 53 12 46 6 -3 9 -15 6 -25 -3 -10 -1 -22 4 -25 5
-3 9 7 10 23 1 23 2 24 8 8 10 -33 52 -107 57 -102 2 2 -5 24 -16 48 -22 50
-26 74 -8 63 8 -5 9 -2 4 12 -4 10 -10 32 -13 48 -5 25 -4 28 11 23 10 -4 22
-7 27 -7 15 0 10 -44 -7 -68 -8 -12 -12 -28 -8 -34 6 -9 10 -5 14 11 3 14 11
26 18 29 10 3 12 -5 7 -29 -3 -19 -1 -45 5 -59 10 -23 10 -22 6 11 -7 58 11
70 20 13 5 -38 9 -44 15 -29 4 11 8 34 8 50 1 19 9 35 21 42 17 11 20 9 30
-25 5 -20 10 -44 10 -52 1 -8 7 -28 16 -45 l14 -30 -6 30 c-11 52 -16 89 -18
135 0 25 -5 51 -10 58 -5 8 -4 18 3 25 8 8 11 6 11 -7 0 -16 42 -66 55 -66 2
0 -4 19 -15 42 -17 37 -17 45 -4 70 9 17 20 25 29 22 11 -5 12 -11 5 -24 -17
-31 -11 -44 8 -22 15 17 21 19 32 9 10 -10 12 -8 7 10 -3 14 -1 20 7 17 8 -3
11 6 8 31 -3 23 0 35 8 35 7 0 10 7 7 15 -4 8 -2 17 3 20 5 3 11 -3 13 -12 3
-10 5 -4 6 14 0 17 6 35 11 38 6 4 9 -5 8 -22 -4 -55 2 -78 23 -92 20 -12 21
-11 16 6 -19 61 -20 66 -9 59 9 -5 10 8 6 48 -8 68 1 73 17 11 17 -67 33 -70
26 -4 l-6 54 15 -34 c8 -19 14 -42 13 -50 -3 -22 10 -66 32 -109 22 -45 23
-36 5 31 -19 68 -30 188 -16 167 5 -8 10 -25 10 -37 0 -13 4 -23 9 -23 5 0 14
-19 20 -42 6 -24 16 -50 22 -58 9 -12 10 -11 4 5 -14 38 -45 170 -45 193 0 31
18 28 26 -5 17 -76 25 -103 33 -103 4 0 6 15 4 32 -3 28 -2 30 6 12 19 -43 30
-36 26 16 -2 27 -7 55 -11 62 -6 9 -3 9 9 -1 15 -12 17 -11 17 5 0 17 1 17 16
-2 14 -18 15 -18 10 -1 -3 11 -9 50 -12 88 -4 53 -2 69 8 69 9 0 14 -19 16
-63 3 -69 22 -106 22 -43 0 20 7 44 15 52 9 10 15 11 15 4 0 -6 6 -10 13 -7 7
2 17 -10 23 -27 10 -27 11 -21 11 51 -1 77 5 104 19 90 3 -3 10 -56 15 -119 9
-102 25 -185 35 -176 2 2 -1 20 -6 39 -5 19 -11 75 -14 124 -4 73 -3 86 7 71
36 -55 46 -58 22 -6 -23 52 -34 138 -18 153 3 4 14 -11 24 -33 26 -57 31 -50
10 13 -28 81 -33 117 -17 117 8 0 17 10 20 23 7 21 7 21 16 2 l9 -20 1 20 c1
19 1 19 14 3 18 -24 29 -23 16 1 -5 11 -10 35 -9 53 1 30 2 28 21 -25 11 -32
22 -56 24 -54 3 2 0 16 -6 31 -13 35 -13 96 0 96 5 0 9 5 7 11 -1 6 3 13 8 15
7 3 9 -18 7 -61 -3 -42 0 -65 7 -65 6 0 8 7 5 15 -4 8 -3 32 1 53 7 37 7 37
18 12 11 -25 26 -40 39 -40 4 0 0 16 -9 35 -14 29 -15 38 -3 59 7 14 10 32 6
41 -3 9 0 18 9 22 10 3 13 12 9 25 -6 19 19 68 36 68 5 0 12 -9 15 -21 15 -46
15 -7 1 49 -18 66 -21 122 -7 122 4 0 11 -26 14 -57 6 -57 35 -158 43 -150 3
2 -2 30 -11 62 -8 32 -17 99 -20 147 -4 72 -2 92 10 105 21 21 33 7 16 -19
-11 -18 -11 -20 2 -15 11 4 18 -6 26 -36 6 -23 16 -49 22 -57 9 -12 10 -11 4
5 -7 18 -21 75 -30 115 -2 8 -4 20 -5 25 -5 23 1 27 15 9 13 -18 14 -18 8 4
-4 16 0 27 13 37 11 8 15 15 10 15 -5 0 -2 7 5 17 13 15 12 15 -8 2 -16 -10
-19 -16 -10 -22 8 -5 5 -7 -8 -5 -32 6 -21 53 26 116 24 32 35 51 26 43 -31
-25 -17 7 16 36 17 16 39 37 47 48 14 18 14 18 -15 -1 -39 -25 -75 -59 -75
-70 0 -5 -9 -15 -20 -22 -11 -7 -20 -10 -20 -8 0 13 43 76 52 76 6 0 8 7 4 15
-3 8 -1 15 4 15 6 0 10 5 10 12 0 6 -7 4 -18 -5 -10 -10 -23 -17 -29 -17 -20
0 -2 36 54 111 33 44 44 63 26 46 -16 -15 -32 -25 -35 -21 -4 3 -27 -3 -52
-15 -25 -11 -46 -16 -46 -11 0 5 5 12 10 15 6 4 8 11 4 16 -3 5 0 16 6 24 7 8
9 15 5 15 -4 0 1 12 10 27 12 19 1 12 -36 -22 -29 -27 -54 -56 -54 -64 0 -8
-5 -16 -11 -18 -17 -6 -13 30 5 51 16 18 15 18 -17 2 -43 -22 -51 -14 -24 24
12 16 22 37 21 47 0 14 -2 15 -6 3 -9 -24 -45 -60 -54 -54 -5 3 -9 -1 -9 -8 0
-8 -15 -22 -32 -32 l-33 -18 28 26 c15 15 27 31 27 37 0 5 15 18 33 29 l32 20
-32 -3 c-17 -2 -43 -11 -57 -20 -37 -25 -53 -21 -28 6 26 28 31 57 7 37 -9 -7
-18 -10 -22 -6 -8 8 26 46 42 46 7 0 18 7 26 16 10 13 6 12 -27 -3 -21 -10
-56 -28 -76 -40 -58 -35 -73 -29 -42 16 9 12 30 32 48 42 l31 20 -29 -7 c-21
-5 -27 -4 -22 5 14 22 -6 11 -26 -15 -15 -18 -27 -24 -41 -20 -12 3 -27 0 -34
-6 -7 -6 -13 -7 -13 -2 0 5 -4 2 -10 -6 -5 -8 -13 -11 -17 -6 -4 4 -1 13 8 19
9 7 21 23 28 37 11 23 11 24 -3 6 -22 -27 -28 -16 -11 18 21 39 19 43 -6 12
-11 -14 -25 -26 -30 -26 -14 0 6 35 49 83 29 34 26 32 -19 -11 -59 -56 -74
-64 -66 -32 7 29 -2 25 -13 -6 -6 -14 -16 -24 -22 -22 -7 3 -21 -4 -32 -14
-24 -22 -29 -18 -17 13 5 13 10 17 11 9 0 -12 3 -11 11 3 6 9 14 15 19 12 4
-3 11 2 14 10 5 13 2 14 -17 3 -12 -7 -28 -11 -35 -9 -8 1 -16 -7 -19 -18 -3
-12 -6 -21 -7 -21 -1 0 -16 -4 -34 -9 -20 -6 -30 -6 -27 0 4 5 12 9 20 9 8 0
17 4 20 10 4 6 -1 7 -12 3 -16 -6 -16 -4 2 18 16 18 16 21 2 10 -25 -19 -34
-5 -12 19 10 11 13 20 8 20 -6 0 -18 -11 -26 -24 -9 -13 -27 -26 -41 -28 -21
-4 -24 -3 -15 8 6 8 15 12 19 9 4 -3 10 2 14 10 3 9 -1 15 -10 15 -11 0 -14 5
-10 17 5 13 0 11 -18 -6 -15 -14 -26 -20 -26 -15 -1 5 -10 -2 -20 -15 -16 -19
-20 -20 -20 -6 0 9 10 25 23 36 18 16 19 18 3 12 -15 -5 -17 -3 -11 8 5 7 -4
4 -20 -9 -15 -12 -31 -20 -34 -17 -3 4 0 10 7 14 7 4 14 18 17 30 6 31 20 46
56 61 16 7 27 15 25 18 -6 5 -114 -36 -133 -51 -9 -6 -13 -5 -13 4 -1 11 -3
11 -13 -1 -7 -8 -21 -22 -31 -30 -18 -14 -19 -14 -8 7 18 33 15 34 -24 12 -20
-11 -44 -19 -53 -17 -9 1 -22 -1 -28 -5 -21 -13 -15 -3 22 37 19 21 35 43 35
49 0 6 7 19 17 29 24 27 -3 23 -30 -5 -12 -12 -34 -28 -49 -35 -24 -10 -27 -9
-25 6 1 9 6 23 10 30 13 20 -8 14 -28 -8 -22 -24 -75 -52 -75 -40 0 5 4 20 10
34 6 17 6 26 0 26 -6 0 -10 -4 -10 -10 0 -5 -5 -10 -11 -10 -5 0 -7 6 -3 12 5
7 -5 3 -21 -10 -29 -23 -46 -23 -27 1 7 8 9 17 5 21 -4 4 6 18 22 32 30 26 30
26 3 10 -21 -12 -28 -13 -28 -4 -1 7 -8 0 -17 -17 -10 -16 -16 -33 -15 -37 1
-3 -6 -12 -15 -20 -12 -9 -15 -9 -9 0 12 20 -12 14 -34 -10 -16 -18 -20 -19
-20 -6 0 9 8 24 17 34 10 9 18 23 19 31 1 8 10 26 19 41 11 17 2 11 -23 -15
-58 -62 -80 -58 -42 7 l21 35 -30 -35 c-17 -19 -31 -38 -31 -42 0 -5 -5 -8
-10 -8 -7 0 -7 7 0 23 10 20 10 20 -10 -3 l-22 -25 7 29 6 29 -31 -32 c-35
-34 -66 -42 -56 -13 6 16 5 16 -6 0 -7 -9 -19 -25 -26 -35 -13 -19 -13 -16 5
47 2 8 -6 -4 -19 -28 -13 -24 -27 -40 -31 -36 -4 4 -7 -4 -7 -18 0 -14 -9 -33
-20 -43 -11 -10 -20 -28 -20 -39 0 -18 2 -19 11 -6 8 12 10 12 7 1 -2 -8 -14
-16 -26 -18 -19 -2 -21 0 -14 15 11 20 23 82 17 82 -2 0 -9 -19 -15 -41 -6
-23 -22 -51 -34 -63 -25 -23 -66 -85 -66 -100 0 -6 13 11 29 36 35 55 51 67
51 38 0 -11 -11 -32 -25 -46 -14 -14 -25 -29 -25 -33 0 -5 -10 -21 -22 -36
-27 -34 -89 -175 -78 -175 5 0 14 16 20 35 6 19 16 35 21 35 5 0 9 10 9 23 0
12 5 29 10 37 9 13 11 13 20 0 18 -27 9 -80 -14 -80 -6 -1 -22 -22 -35 -48
-13 -26 -41 -80 -62 -121 -21 -41 -45 -79 -53 -83 -9 -5 -16 -14 -16 -20 0 -6
-27 -39 -60 -74 -57 -62 -99 -124 -83 -124 5 0 20 19 36 43 15 23 42 60 61 81
33 38 34 39 33 14 -1 -14 -5 -24 -9 -21 -5 2 -8 0 -8 -6 0 -5 -23 -36 -50 -67
-28 -31 -48 -60 -45 -62 3 -3 19 10 36 29 27 31 29 32 23 9 -9 -38 -83 -140
-100 -140 -3 0 -3 15 1 32 7 33 7 33 -12 13 -10 -11 -25 -34 -32 -51 -15 -37
-66 -57 -55 -22 5 17 3 18 -15 9 -12 -7 -21 -18 -21 -25 0 -8 -9 -24 -20 -37
-25 -30 -28 -5 -3 30 9 14 11 21 5 17 -20 -12 -14 24 10 63 14 22 16 31 7 24
-9 -7 -18 -10 -21 -7 -4 3 -9 -8 -13 -25 -6 -27 -88 -121 -105 -121 -13 0 -19
44 -8 57 17 20 -7 15 -25 -5 -10 -10 -16 -21 -15 -23 2 -2 1 -3 -1 -2 -2 1
-22 -13 -44 -32 -50 -43 -117 -49 -75 -7 7 7 8 12 2 12 -5 0 -27 -20 -47 -45
-21 -25 -43 -45 -49 -45 -7 0 4 16 23 36 l34 36 -35 -17 -35 -18 20 24 c11 13
29 32 40 41 11 10 17 18 13 18 -4 0 -39 -27 -78 -61 -72 -62 -97 -71 -66 -25
18 29 21 40 6 31 -17 -10 -11 7 8 22 15 13 14 13 -8 2 -13 -7 -32 -21 -42 -33
-15 -18 -17 -18 -18 -4 0 9 4 19 9 22 5 3 11 15 14 25 3 12 -17 -3 -49 -36
-30 -32 -54 -53 -54 -47 0 5 6 16 13 23 10 10 8 11 -8 6 -18 -6 -17 -4 4 14
13 12 29 21 36 21 7 0 15 7 19 15 7 20 5 19 -48 -9 -25 -13 -46 -20 -48 -15
-2 5 -11 0 -20 -11 -10 -11 -13 -20 -7 -20 5 0 7 -4 4 -10 -10 -16 -22 -12
-20 7 2 27 17 57 32 66 17 11 17 31 -1 24 -20 -8 -27 3 -15 24 17 33 2 20 -20
-16 -22 -38 -60 -49 -62 -17 0 10 -6 5 -15 -15 -7 -18 -23 -37 -35 -43 -32
-18 -33 -5 -2 20 l28 23 -27 -7 c-22 -5 -26 -3 -22 9 4 8 11 15 17 15 6 0 7 3
4 6 -4 4 -18 -1 -31 -10 -33 -21 -39 -20 -31 5 l7 22 -23 -22 c-12 -11 -31
-21 -41 -21 -10 0 -18 -7 -18 -15 0 -8 -4 -15 -10 -15 -16 0 0 28 26 45 13 8
24 21 24 27 0 6 -10 3 -22 -8 -13 -10 -6 0 16 23 l38 41 -48 -23 c-27 -13 -60
-27 -74 -30 l-25 -7 24 26 c34 36 11 33 -24 -4 -32 -34 -59 -42 -29 -9 21 24
22 28 2 40 -10 7 -8 10 8 15 12 3 31 19 44 36 21 28 21 29 1 19 -11 -6 -23
-16 -27 -22 -4 -8 -9 -7 -15 2 -7 11 -9 10 -9 -4 0 -10 -12 -22 -27 -28 -25
-9 -87 -36 -105 -46 -5 -2 -8 1 -8 6 0 6 7 11 15 11 8 0 15 4 15 8 0 5 10 14
23 20 22 10 21 11 -6 11 -16 1 -30 -5 -33 -14 -4 -8 -11 -15 -16 -15 -6 0 -5
6 2 15 8 10 9 15 2 15 -6 0 -9 7 -6 15 4 8 11 12 17 8 6 -4 7 -1 3 6 -5 7 0
21 11 33 12 14 13 18 3 13 -8 -5 -21 -17 -28 -27 -8 -11 -21 -17 -31 -13 -11
3 -25 -3 -36 -15 -10 -11 -23 -20 -29 -20 -6 0 -5 5 2 12 21 21 13 32 -8 13
-18 -17 -20 -17 -14 -2 5 15 16 20 34 19 3 0 17 8 30 19 l25 19 -28 -10 c-48
-17 -51 -11 -13 25 21 19 44 35 51 35 8 0 17 5 20 11 4 5 -10 3 -30 -5 -43
-18 -59 -20 -50 -6 10 17 -11 11 -38 -10 -32 -26 -45 -26 -22 0 10 11 15 20
10 20 -4 0 3 9 16 20 24 21 23 21 -19 0 -57 -28 -91 -22 -44 7 l33 21 -26 6
c-14 4 -35 2 -46 -5 -26 -14 -36 -5 -18 17 8 10 13 20 12 23 -1 3 8 12 20 19
14 8 15 11 5 8 -21 -6 -24 13 -5 34 6 8 0 5 -14 -8 -14 -12 -32 -22 -41 -22
-8 0 -20 -11 -26 -25 -6 -14 -19 -25 -27 -25 -15 0 -15 2 -1 22 9 12 16 30 16
39 0 9 14 26 31 37 24 15 27 21 15 25 -8 3 -18 2 -21 -3 -4 -6 -11 -10 -17
-10 -6 0 -5 7 3 17 8 10 -3 3 -24 -15 -21 -17 -40 -32 -42 -32 -2 0 -3 12 -2
28 2 22 -2 27 -21 26 -24 -1 -23 0 22 34 37 28 28 28 -21 0 l-38 -22 24 27
c22 24 22 27 6 27 -17 0 -17 1 1 21 19 22 19 22 -3 10 -32 -16 -38 -14 -18 9
13 14 14 20 5 20 -9 0 -4 10 11 27 18 20 20 25 7 20 -35 -12 -17 13 23 33 23
12 39 24 36 27 -3 2 -14 0 -25 -6 -29 -15 -37 -14 -22 4 10 12 10 15 -3 15 -9
0 -19 -5 -22 -10 -4 -6 -11 -7 -17 -4 -7 5 -4 12 7 21 18 12 10 19 -17 14 -12
-2 -9 14 4 27 9 9 8 12 -8 12 -16 0 -15 4 11 25 l30 26 -44 -21 c-23 -12 -40
-16 -36 -10 5 9 1 10 -16 5 l-24 -8 25 22 25 22 -33 -16 c-36 -18 -59 -10 -29
9 27 17 82 66 73 66 -4 0 -16 -5 -27 -10 -28 -16 -44 -2 -24 20 16 18 16 18
-7 13 l-23 -6 25 28 c19 21 21 27 8 22 -35 -12 -17 14 30 44 46 31 47 31 15
27 -22 -3 -33 0 -33 8 0 7 15 21 33 33 36 23 34 26 -12 10 -17 -6 -31 -15 -31
-20 0 -5 -5 -9 -11 -9 -8 0 -8 5 1 15 7 8 9 15 4 15 -5 0 9 12 31 25 45 28 41
32 -12 10 -33 -14 -35 -14 -22 2 10 11 10 14 2 9 -21 -12 -36 3 -21 22 11 12
11 16 0 20 -10 3 -6 12 13 33 27 27 27 28 4 22 l-23 -6 23 34 c13 19 35 45 50
57 25 23 25 23 2 12 -13 -7 -34 -13 -47 -15 -19 -2 -22 0 -13 11 6 8 17 14 24
14 7 0 18 6 24 14 10 12 8 13 -11 9 -13 -3 -28 -9 -33 -12 -6 -3 -2 3 10 13
l20 19 -23 -6 c-12 -3 -20 -1 -16 4 3 5 13 9 22 9 9 0 24 5 32 11 11 8 9 9
-10 3 l-25 -6 29 31 c19 20 25 31 15 31 -12 0 -12 2 1 10 8 5 11 10 5 10 -5
-1 -19 -7 -29 -15 -11 -8 -29 -15 -40 -15 -17 1 -13 8 24 41 25 22 36 37 26
33 -13 -5 -17 -4 -12 4 4 7 3 12 -3 12 -5 0 -12 19 -16 42 -7 37 -4 44 16 61
24 20 24 20 2 13 -20 -6 -23 -4 -24 21 -2 50 8 155 21 208 5 22 7 41 4 44 -2
2 -4 -1 -4 -7 0 -18 -37 -14 -44 4 -8 22 -9 21 19 28 14 4 25 11 25 17 0 6 -7
6 -21 -1 -11 -7 -23 -10 -25 -7 -5 4 22 28 62 54 16 11 15 11 -8 3 -27 -9 -49
2 -28 15 16 10 12 25 -5 19 -9 -4 -15 0 -15 10 0 9 5 16 10 16 9 0 9 40 -1 80
-2 8 1 14 6 14 6 -1 19 7 30 18 17 16 17 18 2 13 -21 -9 -22 1 -2 22 20 20 26
14 29 -35 7 -82 21 -70 19 16 -1 79 0 85 12 62 13 -22 14 -23 14 -5 0 11 -4
40 -10 64 -9 40 -7 48 12 75 l22 31 -23 -20 -23 -20 6 25 c4 14 7 31 7 39 0 7
6 11 14 8 14 -6 17 23 3 34 -10 7 2 39 14 39 5 0 9 6 9 13 0 7 8 19 19 26 18
13 18 15 2 45 -20 36 -22 102 -3 98 6 -1 12 5 12 14 0 8 6 22 13 29 27 32 34
41 39 63 4 12 2 22 -3 22 -14 0 -11 26 5 39 8 7 12 21 8 33 -3 15 -2 19 7 14
6 -4 9 -12 6 -17 -4 -5 -1 -9 5 -9 7 0 10 -6 7 -12 -2 -7 -10 -12 -16 -10 -6
1 -11 -5 -11 -14 0 -10 6 -14 14 -11 10 4 14 -13 15 -81 2 -79 17 -170 26
-160 2 2 0 21 -5 43 -14 58 -13 108 2 99 8 -5 9 -2 5 9 -14 37 -20 117 -8 117
6 0 11 -4 11 -9 0 -17 31 -83 37 -77 3 3 -4 28 -16 56 -12 27 -22 66 -23 85
-1 19 -5 35 -10 35 -4 0 -8 7 -8 16 0 11 6 14 20 9 17 -5 20 -2 21 22 2 27 2
27 7 3 l5 -25 7 25 7 25 13 -27 c7 -16 19 -28 26 -28 6 0 15 -11 18 -25 4 -14
10 -25 15 -25 4 0 -1 25 -11 56 -11 31 -17 66 -15 78 3 20 4 20 15 -4 12 -24
12 -24 6 8 -3 17 -2 32 3 32 14 -1 43 -70 43 -105 0 -19 4 -36 8 -39 4 -2 7
27 5 65 -1 43 1 67 7 64 6 -4 10 10 11 32 l1 38 15 -37 c15 -37 27 -46 37 -30
2 4 -2 32 -10 61 -8 32 -10 59 -5 65 5 6 11 22 14 36 l4 25 2 -25 c1 -14 8
-34 16 -44 8 -11 16 -36 16 -55 l2 -36 7 40 c6 32 7 34 9 12 0 -17 5 -26 11
-22 6 4 8 21 4 41 -4 22 -2 34 5 34 6 0 11 -10 12 -22 0 -13 7 -41 14 -63 13
-35 14 -36 9 -7 -6 37 2 42 16 10 l9 -23 0 23 c1 12 5 22 11 22 6 0 8 20 5 48
l-5 47 15 -45 c18 -54 19 -74 3 -64 -7 4 -8 3 -4 -5 4 -6 11 -9 15 -6 5 2 13
-7 20 -22 6 -14 14 -23 17 -20 3 3 -2 19 -10 36 -19 36 -20 41 -3 41 7 0 24
25 37 56 14 30 32 62 41 70 15 13 17 9 23 -46 5 -44 11 -60 22 -60 8 0 12 5 9
10 -3 6 -2 10 4 10 7 0 7 8 1 26 -13 33 -13 37 3 31 9 -3 12 8 11 39 -1 24 2
44 7 44 5 0 9 -7 9 -15 0 -8 5 -15 10 -15 6 0 10 -25 10 -56 0 -30 4 -53 9
-50 5 3 11 -9 14 -27 6 -39 26 -91 32 -85 2 2 -3 24 -12 48 -17 50 -26 180
-12 180 5 0 9 -7 9 -15 0 -8 4 -15 8 -15 5 0 13 -12 20 -27 l12 -28 -5 27 c-3
15 -1 30 5 33 6 3 7 17 4 31 -11 41 10 26 35 -26 13 -27 30 -55 39 -62 10 -9
8 1 -7 29 -22 45 -27 88 -11 98 6 3 10 -4 10 -17 0 -27 21 -78 32 -78 4 0 3
12 -2 26 -6 14 -10 39 -10 55 0 42 23 33 31 -12 6 -33 6 -33 8 10 1 37 3 42
16 31 8 -7 15 -22 16 -34 0 -15 5 -11 17 17 18 40 32 40 32 0 0 -13 5 -23 10
-23 6 0 10 -18 10 -40 0 -22 4 -40 8 -40 5 0 15 -18 22 -40 14 -43 30 -46 22
-4 -3 19 -1 25 7 20 6 -4 11 -33 11 -64 1 -32 7 -68 16 -82 14 -24 14 -24 7
15 -11 55 -7 145 6 158 8 8 11 3 11 -19 0 -20 3 -25 9 -16 6 10 18 -6 40 -54
35 -76 53 -83 21 -8 -12 26 -20 59 -18 72 3 23 5 22 29 -16 16 -24 29 -62 33
-96 9 -71 24 -74 19 -3 l-4 52 22 -47 c12 -27 26 -48 31 -48 5 0 4 10 -3 21
-6 12 -13 31 -14 43 -2 11 -7 38 -11 59 -6 33 -4 37 13 37 14 0 24 -10 31 -32
9 -28 11 -29 10 -8 -1 14 0 41 1 60 l3 35 18 -50 c18 -48 25 -52 20 -10 -2 16
0 17 14 6 9 -7 16 -20 16 -27 0 -8 5 -14 10 -14 13 0 13 10 -1 48 -6 17 -9 41
-7 54 4 22 5 22 17 -7 8 -16 19 -52 27 -80 l13 -50 -2 42 c-1 23 2 45 5 49 4
3 4 19 1 35 -3 18 -1 29 6 29 6 0 11 -7 11 -15 0 -8 5 -15 10 -15 6 0 10 -10
10 -21 0 -19 2 -20 17 -8 15 13 16 11 10 -24 -3 -22 -2 -35 4 -32 12 8 11 -18
-2 -74 -6 -26 -6 -48 -1 -53 6 -6 12 11 16 41 7 52 25 70 28 29 1 -13 2 -30 4
-38 1 -8 2 -24 3 -35 1 -16 5 -14 21 13 22 36 27 38 50 17 16 -15 17 -14 12
12 -4 23 -2 26 9 15 11 -10 11 -20 1 -55 -17 -56 -24 -86 -16 -67 4 8 20 36
37 62 26 42 31 45 45 32 13 -13 12 -21 -12 -63 -14 -27 -26 -53 -26 -57 1 -5
10 8 21 29 11 20 24 37 29 37 6 0 11 8 11 18 1 9 4 4 8 -13 4 -16 1 -57 -6
-90 -8 -33 -12 -71 -10 -85 4 -22 4 -22 6 5 0 17 11 43 24 58 l22 28 -4 -83
c-3 -75 -7 -89 -42 -147 -42 -69 -51 -102 -18 -61 l20 25 -6 -24 c-5 -16 -4
-21 4 -17 6 4 11 15 11 24 1 42 86 182 111 182 10 0 1 -85 -13 -115 -7 -16 -6
-16 8 2 9 13 20 23 23 23 12 0 -4 -93 -22 -127 -10 -18 -16 -33 -13 -33 2 0
11 -3 19 -6 10 -4 17 2 20 18 3 13 5 -5 4 -39 -1 -33 1 -59 6 -56 4 2 7 14 7
25 0 12 7 48 16 80 12 41 21 57 30 54 10 -4 14 3 14 19 0 13 5 27 10 30 19 12
10 -33 -19 -97 -16 -36 -31 -80 -35 -99 -7 -38 0 -27 31 53 10 27 21 48 24 48
3 0 9 -32 13 -72 4 -40 10 -75 15 -78 5 -3 11 -14 14 -25 3 -12 5 -6 6 16 0
20 7 41 14 47 9 8 12 -13 12 -98 0 -68 4 -113 11 -120 9 -9 9 0 2 37 -9 47 -2
158 11 178 3 6 6 17 7 25 3 43 5 50 14 50 6 0 10 -18 10 -39 0 -22 5 -43 10
-46 6 -3 10 2 10 12 0 15 2 16 10 3 13 -21 12 -60 -1 -60 -8 0 -10 -16 -6 -50
9 -72 25 -97 20 -29 -3 40 -2 50 6 39 6 -8 11 -24 11 -35 1 -11 7 -33 16 -50
12 -26 14 -27 9 -5 -3 14 -8 35 -11 48 -5 16 -2 22 9 22 8 0 17 -13 21 -32 3
-17 8 -29 11 -27 2 3 0 23 -6 44 -7 26 -8 40 -1 43 5 1 7 13 4 24 -4 17 -2 20
11 15 20 -7 21 -3 7 24 -8 14 -7 19 3 19 27 0 40 -46 35 -124 -6 -89 6 -103
15 -17 4 32 11 70 17 86 9 23 13 25 26 14 14 -11 15 -9 9 24 -5 23 -3 37 3 37
15 0 34 -65 29 -98 -2 -15 -2 -21 0 -14 3 7 9 10 14 7 5 -4 9 4 9 15 0 15 5
20 14 17 11 -5 12 0 3 24 -8 21 -8 32 0 40 8 8 13 -3 18 -40 4 -28 11 -49 15
-46 5 3 16 -7 25 -22 9 -15 14 -21 11 -13 -3 8 -10 33 -17 54 -10 31 -11 40
-1 44 7 2 12 12 12 22 0 30 17 32 24 4 7 -25 8 -25 20 -8 13 17 15 16 28 -16
8 -19 22 -41 31 -48 13 -11 15 -10 10 8 -3 12 -12 24 -19 27 -8 3 -14 9 -14
15 0 5 5 6 10 3 6 -4 10 5 10 19 0 16 6 26 15 26 8 0 15 -9 15 -20 0 -13 5
-18 15 -14 10 4 15 0 15 -11 0 -9 -4 -13 -10 -10 -13 8 -13 10 10 -55 l20 -55
-7 73 c-7 82 6 95 31 32 20 -52 25 -51 15 3 -11 56 -11 57 4 57 6 0 19 -17 28
-38 16 -37 16 -37 11 53 -5 98 2 110 17 24 l9 -54 1 63 c0 34 5 62 10 62 15 0
32 -56 26 -86 -5 -26 -4 -27 5 -6 l10 22 20 -20 c12 -12 25 -31 29 -43 6 -14
7 1 4 41 -5 53 -4 62 9 57 11 -4 17 3 21 24 4 17 12 31 18 31 7 0 9 -10 5 -27
-12 -46 -19 -264 -10 -273 5 -5 8 30 6 83 -3 104 7 178 26 185 6 2 12 -5 13
-15 1 -10 5 1 11 25 6 26 15 42 24 42 8 0 12 5 9 10 -3 6 -3 16 1 22 6 9 10 5
15 -12 7 -24 7 -24 9 5 2 17 6 -2 10 -41 4 -40 13 -80 19 -90 9 -16 10 -12 5
19 -3 21 -2 37 3 37 5 0 10 8 10 18 -1 9 1 31 3 47 l3 30 7 -35 c6 -31 8 -32
9 -8 1 36 19 45 27 13 9 -36 21 -31 16 6 -3 22 -1 30 7 25 6 -4 11 -21 11 -37
0 -43 40 -161 53 -156 7 2 10 21 9 44 -4 49 16 123 32 117 6 -2 12 7 12 22 2
32 11 41 26 26 9 -9 8 -18 -2 -39 -8 -16 -15 -44 -16 -63 l-2 -35 11 35 c7 19
17 43 23 53 10 17 12 17 27 -7 13 -18 15 -37 10 -71 -4 -33 -9 -43 -15 -33 -7
9 -8 8 -4 -5 3 -10 6 -21 6 -23 0 -3 4 -2 10 1 6 3 10 21 10 40 0 19 4 36 9
39 5 3 7 14 5 24 -3 9 2 26 11 37 15 19 16 18 13 -17 -5 -46 0 -48 13 -8 6 17
15 30 20 30 5 0 9 11 9 24 0 51 31 40 49 -16 7 -21 17 -41 23 -44 6 -4 6 1 -1
14 -6 11 -8 28 -5 36 3 9 1 16 -6 16 -7 0 -10 14 -8 38 2 20 7 35 13 32 6 -3
9 -16 7 -30 -2 -24 -2 -24 10 -5 11 18 13 16 24 -25 10 -36 13 -39 12 -15 -3
90 11 95 38 12 40 -124 82 -169 71 -77 -7 58 3 65 21 16 7 -19 19 -39 27 -46
8 -7 2 16 -15 54 -23 49 -30 80 -30 126 0 63 9 76 26 38 6 -13 8 -16 6 -8 -27
98 -1 202 67 263 25 22 34 33 19 24 -34 -21 -39 -21 -31 0 5 12 3 14 -7 8 -9
-5 -11 -4 -6 4 4 6 11 9 16 6 5 -3 14 3 20 14 10 19 9 19 -17 5 -16 -7 -35
-14 -43 -14 -8 0 -24 -7 -34 -15 -23 -18 -45 -20 -29 -4 6 6 9 17 6 24 -2 8 3
25 12 39 10 14 14 26 10 26 -4 0 -2 7 5 15 8 10 9 15 1 15 -6 0 -17 -13 -26
-30 -9 -16 -20 -30 -25 -30 -6 0 -10 -6 -10 -14 0 -7 -7 -20 -16 -27 -15 -12
-16 -11 -9 11 4 14 13 35 21 47 18 29 18 39 -1 23 -26 -21 -16 0 11 25 29 27
21 32 -23 13 -34 -14 -63 -18 -63 -8 0 13 31 34 53 37 12 2 31 13 42 25 l20
21 -25 -17 c-32 -21 -46 -21 -29 1 8 9 -8 0 -35 -21 -47 -36 -74 -43 -42 -11
22 23 21 38 -3 25 -28 -14 -35 -12 -20 6 8 9 21 13 35 10 13 -4 26 -1 29 5 4
6 17 15 29 20 18 8 16 9 -9 5 -16 -3 -41 -9 -54 -12 -17 -5 -22 -4 -17 4 4 7
3 12 -3 12 -5 0 -15 -8 -20 -17 -17 -30 -14 27 4 60 8 15 10 25 5 22 -6 -4
-10 4 -11 17 0 23 0 23 -9 2 -5 -12 -15 -26 -22 -30 -11 -6 -11 -5 0 8 10 13
10 17 0 21 -10 3 -9 9 5 24 19 22 23 38 5 27 -7 -4 -8 -3 -4 5 4 6 12 9 17 5
6 -3 21 6 35 20 l26 25 -24 -3 c-13 -1 -29 -6 -36 -10 -24 -15 -12 19 16 42
15 13 23 21 17 19 -5 -3 -34 -12 -63 -21 -46 -13 -53 -13 -48 -1 3 8 1 17 -3
20 -5 3 -11 -2 -15 -10 -3 -8 -12 -12 -21 -9 -14 6 -14 9 -2 23 35 40 32 57
-3 19 -35 -37 -30 -15 5 27 19 21 32 41 30 43 -2 2 -23 -12 -47 -32 -27 -24
-44 -32 -47 -24 -2 6 1 14 6 15 6 2 19 10 29 18 18 13 17 14 -9 11 -15 -1 -30
-6 -34 -9 -3 -4 -11 -7 -16 -7 -6 0 2 11 17 25 14 13 26 28 26 33 0 5 10 14
23 20 20 10 20 11 -12 11 -27 1 -32 4 -23 13 7 7 12 19 12 28 0 11 -4 10 -18
-6 -9 -11 -35 -32 -57 -45 l-40 -24 19 30 19 30 -28 -25 c-27 -24 -27 -24 -16
-2 7 12 34 39 61 59 49 37 60 55 21 33 -23 -12 -28 -2 -8 20 6 8 -1 4 -16 -10
-16 -14 -32 -25 -35 -25 -4 0 -6 -3 -5 -7 2 -4 -5 -4 -14 -1 -14 5 -9 14 26
45 l44 38 -49 -21 c-27 -12 -57 -29 -68 -38 -18 -15 -18 -15 -11 9 10 34 33
70 45 70 6 0 10 7 10 15 0 18 -5 18 -31 4 -18 -9 -19 -8 -13 18 4 15 11 32 15
38 5 5 9 13 9 18 0 4 -27 -13 -60 -38 -52 -40 -59 -43 -51 -22 6 14 7 28 3 32
-4 3 1 11 11 16 9 6 15 15 11 20 -4 6 -11 6 -20 -2 -23 -19 -26 -5 -4 19 21
23 27 37 10 27 -5 -3 -10 -4 -10 -1 0 3 12 12 28 21 l27 15 -29 -5 c-16 -2
-34 -9 -40 -15 -16 -16 -25 -12 -19 9 2 10 25 33 49 52 40 30 50 39 41 39 -2
0 -18 -11 -37 -25 -38 -28 -59 -33 -40 -10 8 10 9 15 2 15 -6 0 -15 -6 -19
-14 -4 -7 -19 -18 -33 -25 l-25 -12 23 20 c12 10 22 24 22 29 0 5 10 17 23 26
22 16 22 16 -5 4 -16 -6 -28 -16 -28 -21 0 -13 -32 -36 -50 -36 -11 0 -10 4 5
17 34 30 28 46 -6 18 -39 -34 -50 -26 -20 15 20 27 21 30 4 20 -11 -5 -25 -17
-33 -25 -7 -9 -21 -16 -31 -16 -11 0 -19 -4 -19 -10 0 -5 -4 -10 -10 -10 -22
0 -8 19 25 34 42 20 52 34 30 42 -10 4 -22 -1 -30 -12 -14 -18 -14 -18 -15 -1
0 11 8 21 18 24 9 3 27 26 40 51 17 35 18 42 5 26 -10 -12 -28 -27 -41 -33
-12 -7 -20 -16 -17 -20 3 -5 -2 -12 -11 -15 -22 -8 -26 -8 -19 4 3 6 -1 7 -9
4 -20 -8 -20 5 0 34 8 12 10 22 5 22 -6 0 -11 -4 -11 -8 0 -8 -43 -32 -56 -32
-9 0 19 45 35 57 18 14 8 16 -27 6 -15 -4 -19 -8 -12 -13 8 -5 7 -9 -3 -13
-12 -4 -15 1 -12 24 l4 30 -30 -32 c-16 -17 -32 -29 -36 -25 -3 3 2 15 11 25
10 11 19 32 21 47 l3 27 -18 -23 c-10 -13 -22 -20 -29 -16 -6 4 -11 3 -11 -3
0 -12 -39 -35 -47 -27 -3 2 12 22 33 43 21 20 35 30 31 20 -9 -25 -2 -21 18 9
11 17 12 24 4 18 -8 -5 -22 -10 -33 -11 -14 -2 -17 1 -12 14 6 15 5 15 -13 -1
-20 -18 -20 -18 -16 18 3 20 1 36 -5 36 -6 0 -10 -7 -10 -15 0 -8 -10 -20 -22
-26 -23 -12 -23 -12 -4 10 20 23 10 29 -14 9 -8 -7 -4 -1 8 13 30 34 9 45 -24
12 -13 -13 -28 -23 -35 -23 -6 0 -1 9 12 20 l24 20 -28 -4 c-28 -5 -28 -5 -13
19 23 36 21 37 -35 14 -56 -22 -70 -19 -51 11 18 30 14 35 -7 9 -22 -28 -41
-18 -20 9 8 10 1 4 -14 -12 -16 -18 -36 -30 -47 -28 -11 2 -23 -6 -30 -18 -6
-12 -14 -20 -16 -17 -2 2 2 16 9 30 8 15 16 24 19 22 3 -3 13 6 22 20 15 23
10 35 -8 18 -4 -5 -11 -8 -14 -8 -4 -1 -17 -6 -28 -13 -19 -10 -23 -9 -27 9
-7 25 2 51 14 43 5 -3 6 2 2 12 -5 15 -7 15 -15 0 -5 -9 -13 -14 -18 -11 -5 3
-16 -5 -24 -17 -9 -12 -19 -19 -22 -15 -8 8 49 62 84 79 14 7 27 19 30 26 2 8
-29 -11 -69 -40 -80 -59 -109 -74 -109 -57 0 6 -9 1 -20 -12 -10 -13 -20 -19
-20 -14 0 6 19 27 42 47 24 20 36 36 28 34 -20 -3 -69 -34 -104 -68 -27 -26
-46 -35 -46 -23 0 2 10 13 22 25 12 11 18 20 13 20 -4 0 0 9 9 19 17 19 17 19
-5 14 -38 -10 -12 17 37 37 47 20 62 36 18 20 -45 -17 -49 -11 -14 20 19 16
32 29 27 30 -4 0 -28 -19 -52 -41 -25 -23 -45 -39 -45 -35 0 3 -18 -6 -40 -20
-22 -15 -43 -24 -47 -21 -3 4 -13 1 -21 -6 -13 -10 -15 -9 -9 6 5 12 1 17 -13
17 -11 0 -20 3 -20 6 0 10 42 44 53 44 6 0 8 3 5 6 -4 3 -16 0 -28 -6 -21 -11
-22 -11 -16 14 7 27 6 27 -23 -6 -16 -18 -33 -30 -37 -26 -8 8 53 72 76 80 8
3 12 8 9 12 -3 3 -23 -7 -45 -22 -43 -31 -79 -48 -69 -32 9 15 -7 12 -29 -5
-31 -23 -37 -18 -31 23 5 34 4 33 -10 -10 -8 -26 -20 -50 -25 -53 -13 -8 -5
57 11 87 9 19 9 21 -2 11 -17 -17 -53 -17 -43 -1 5 7 9 20 9 30 1 13 -11 6
-44 -24 -25 -22 -51 -46 -56 -53 -14 -17 -52 -28 -59 -17 -3 5 7 26 21 48 l27
39 -60 -49 c-32 -27 -53 -43 -46 -36 17 20 15 35 -3 20 -18 -15 -20 1 -2 19
10 10 8 11 -8 5 -18 -7 -19 -6 -5 10 30 38 16 44 -23 11 -38 -33 -64 -33 -37
0 10 12 8 12 -14 2 -14 -7 -26 -19 -26 -28 0 -9 -7 -19 -15 -23 -17 -6 -21 9
-5 19 6 4 8 10 5 15 -3 5 4 14 15 20 11 6 20 15 20 21 0 6 -4 7 -10 4 -5 -3
-18 -8 -29 -10 -18 -3 -18 -1 -5 23 22 43 16 50 -11 11 -25 -37 -55 -57 -55
-37 0 6 12 27 27 47 23 31 24 33 4 16 -13 -11 -26 -19 -30 -17 -3 1 -6 -2 -6
-7 0 -15 -46 -73 -53 -67 -3 4 7 20 23 36 32 34 26 41 -8 9 -18 -17 -23 -18
-25 -5 -2 8 2 24 8 35 6 12 8 21 6 21 -3 0 -15 -19 -27 -42 -16 -31 -23 -38
-30 -27 -7 11 -9 11 -9 -2 0 -9 -7 -22 -15 -29 -21 -17 -19 -1 5 38 11 17 17
32 15 32 -3 0 -31 -20 -63 -45 -31 -25 -60 -45 -64 -45 -15 0 -8 27 13 54 l21
26 -28 -10 c-14 -6 -41 -20 -58 -31 -30 -20 -30 -20 4 10 19 17 40 31 46 31 7
0 15 7 18 16 3 8 -30 -10 -74 -40 -75 -51 -79 -53 -65 -26 9 17 29 46 46 65
17 19 29 35 26 35 -3 0 -9 -5 -12 -10z m690 -110 c-10 -11 -23 -20 -28 -20 -6
0 0 11 13 25 27 29 42 25 15 -5z m-405 10 c0 -5 -5 -10 -11 -10 -5 0 -7 5 -4
10 3 6 8 10 11 10 2 0 4 -4 4 -10z m-659 -13 c-6 -8 -7 -18 -3 -22 4 -5 2 -5
-5 -2 -6 4 -24 -9 -42 -30 -20 -25 -31 -32 -31 -21 0 20 62 88 80 88 9 0 10
-3 1 -13z m609 -12 c-7 -9 -15 -13 -17 -11 -7 7 7 26 19 26 6 0 6 -6 -2 -15z
m120 5 c0 -5 -5 -10 -11 -10 -5 0 -7 5 -4 10 3 6 8 10 11 10 2 0 4 -4 4 -10z
m-995 -10 c-3 -5 -11 -10 -16 -10 -6 0 -7 5 -4 10 3 6 11 10 16 10 6 0 7 -4 4
-10z m1555 -48 c0 -5 -11 -14 -25 -20 -14 -6 -25 -8 -25 -4 0 6 9 12 48 31 1
0 2 -3 2 -7z m-1890 -12 c0 -5 -5 -10 -11 -10 -5 0 -7 5 -4 10 3 6 8 10 11 10
2 0 4 -4 4 -10z m1673 4 c-7 -3 -10 -11 -7 -18 2 -6 -7 -23 -21 -36 -20 -19
-25 -20 -25 -7 0 9 9 21 20 27 11 6 19 14 19 18 -3 15 2 22 14 21 9 0 9 -2 0
-5z m195 -54 c-9 -27 -28 -50 -28 -35 0 9 30 65 35 65 2 0 -1 -14 -7 -30z
m175 5 c-3 -9 -8 -14 -10 -11 -3 3 -2 9 2 15 9 16 15 13 8 -4z m-313 -5 c0 -5
-5 -10 -11 -10 -5 0 -7 5 -4 10 3 6 8 10 11 10 2 0 4 -4 4 -10z m240 -19 c0
-5 -12 -17 -27 -26 l-28 -18 24 27 c26 28 31 31 31 17z m304 -7 c3 -8 2 -12
-4 -9 -6 3 -10 1 -10 -6 0 -7 -3 -10 -6 -6 -7 6 2 37 10 37 2 0 7 -7 10 -16z
m-50 -32 c-5 -5 -22 -14 -39 -21 -35 -15 -22 3 17 23 24 13 38 11 22 -2z
m-2604 -2 c0 -5 -5 -10 -11 -10 -5 0 -7 5 -4 10 3 6 8 10 11 10 2 0 4 -4 4
-10z m2900 -24 c0 -2 -8 -10 -17 -17 -16 -13 -17 -12 -4 4 13 16 21 21 21 13z
m-2959 -23 c-15 -29 -40 -59 -41 -50 0 10 39 67 46 67 3 0 0 -8 -5 -17z m2899
-18 c-7 -8 -17 -15 -23 -15 -5 0 -2 9 8 20 21 23 35 19 15 -5z m-3127 -35 c-3
-11 -7 -20 -9 -20 -2 0 -4 9 -4 20 0 11 4 20 9 20 5 0 7 -9 4 -20z m67 -5 c-7
-9 -15 -13 -17 -11 -7 7 7 26 19 26 6 0 6 -6 -2 -15z m3150 2 c0 -2 -10 -12
-21 -23 -22 -19 -22 -19 -10 4 10 18 31 31 31 19z m-3248 -39 c-7 -7 -12 -8
-12 -2 0 14 12 26 19 19 2 -3 -1 -11 -7 -17z m-32 -7 c0 -5 -7 -12 -16 -15
-14 -5 -15 -4 -4 9 14 17 20 19 20 6z m-100 -65 c0 -2 -7 -9 -15 -16 -13 -11
-14 -10 -9 4 5 14 24 23 24 12z m3480 -15 c0 -5 -7 -12 -16 -15 -14 -5 -15 -4
-4 9 14 17 20 19 20 6z m170 -44 c0 -2 -12 -14 -27 -28 -24 -22 -24 -13 0 19
8 11 27 17 27 9z m185 -277 c-10 -11 -23 -20 -28 -20 -6 0 0 11 13 25 27 29
42 25 15 -5z m155 -25 c-7 -8 -17 -15 -23 -15 -5 0 -2 9 8 20 21 23 35 19 15
-5z m-20 -35 c-8 -5 -22 -10 -30 -10 -13 0 -13 1 0 10 8 5 22 10 30 10 13 0
13 -1 0 -10z m-4530 -95 c-12 -20 -25 -34 -27 -31 -3 3 5 21 17 41 12 20 25
34 27 31 3 -3 -5 -21 -17 -41z m-114 -172 c-13 -24 -15 -25 -16 -7 0 11 6 32
13 47 10 23 12 24 15 7 2 -10 -4 -31 -12 -47z m4814 -47 c0 -2 -8 -10 -17 -17
-16 -13 -17 -12 -4 4 13 16 21 21 21 13z m80 -70 c0 -3 -4 -8 -10 -11 -5 -3
-10 -1 -10 4 0 6 5 11 10 11 6 0 10 -2 10 -4z m60 -56 c0 -5 -9 -14 -20 -20
-24 -13 -26 -7 -4 14 18 18 24 20 24 6z m-2500 -70 c0 -5 -2 -10 -4 -10 -3 0
-8 5 -11 10 -3 6 -1 10 4 10 6 0 11 -4 11 -10z m-123 -30 c-3 -11 0 -18 7 -17
10 2 11 -41 1 -52 -8 -8 -12 2 -20 47 -5 30 -3 42 5 42 7 0 10 -8 7 -20z m73
10 c0 -5 -5 -10 -11 -10 -5 0 -7 5 -4 10 3 6 8 10 11 10 2 0 4 -4 4 -10z m27
-22 c-3 -8 -6 -5 -6 6 -1 11 2 17 5 13 3 -3 4 -12 1 -19z m108 2 c3 -5 1 -10
-4 -10 -6 0 -11 5 -11 10 0 6 2 10 4 10 3 0 8 -4 11 -10z m2455 -8 c0 -5 -12
-19 -26 -33 l-27 -24 17 33 c15 29 36 43 36 24z m-5174 -50 c-22 -22 -32 -7
-16 23 12 22 15 24 23 9 6 -11 4 -21 -7 -32z m3044 4 c0 -8 -4 -18 -10 -21 -5
-3 -10 3 -10 14 0 12 5 21 10 21 6 0 10 -6 10 -14z m-78 -28 c-9 -9 -12 -7
-12 12 0 19 3 21 12 12 9 -9 9 -15 0 -24z m-692 -10 c0 -25 -3 -29 -10 -18
-13 20 -13 50 0 50 6 0 10 -15 10 -32z m455 23 c3 -5 1 -12 -5 -16 -5 -3 -10
1 -10 9 0 18 6 21 15 7z m175 -22 c0 -11 5 -29 11 -40 5 -11 9 -37 7 -57 l-4
-37 -22 46 c-15 33 -20 56 -16 78 7 35 24 42 24 10z m-560 -15 c0 -8 -4 -14
-10 -14 -5 0 -10 9 -10 21 0 11 5 17 10 14 6 -3 10 -13 10 -21z m447 -26 c-3
-8 -6 -5 -6 6 -1 11 2 17 5 13 3 -3 4 -12 1 -19z m-542 0 c9 8 -2 -30 -20 -73
-13 -29 -13 -28 -14 29 -1 48 1 56 12 47 8 -6 17 -7 22 -3z m748 -13 c3 -16 0
-24 -7 -22 -14 4 -21 47 -8 47 5 0 12 -11 15 -25z m-236 -17 c-3 -7 -5 -2 -5
12 0 14 2 19 5 13 2 -7 2 -19 0 -25z m2453 28 c0 -3 -4 -8 -10 -11 -5 -3 -10
-1 -10 4 0 6 5 11 10 11 6 0 10 -2 10 -4z m60 -11 c0 -10 -45 -75 -52 -75 -14
0 -8 21 13 51 18 26 39 38 39 24z m-3080 -48 c0 -18 -2 -19 -10 -7 -13 20 -13
43 0 35 6 -3 10 -16 10 -28z m1112 -27 c-2 -16 -9 -30 -14 -30 -5 0 -7 -4 -3
-9 3 -5 1 -12 -5 -16 -5 -3 -10 3 -10 14 0 12 5 21 11 21 5 0 7 5 4 10 -4 6
-1 17 5 25 17 20 17 19 12 -15z m-1172 -13 c-1 -21 -1 -21 -15 -3 -8 10 -12
23 -9 28 9 14 24 -2 24 -25z m3150 -12 c0 -8 -7 -15 -15 -15 -8 0 -15 -4 -15
-10 0 -5 -6 -10 -12 -10 -7 0 -1 11 12 24 30 30 30 30 30 11z m139 -38 c-9 -7
-14 -17 -12 -23 2 -6 -6 -19 -18 -30 l-22 -19 14 25 c7 14 12 29 11 34 -3 10
31 36 38 29 3 -2 -2 -10 -11 -16z m-2108 -5 c-5 -10 -17 -25 -26 -32 -13 -11
-15 -10 -9 6 6 17 32 44 41 44 2 0 -1 -8 -6 -18z m2072 -100 c-3 -12 -9 -19
-14 -16 -5 3 -9 -16 -10 -43 -1 -26 -4 -59 -9 -73 -6 -22 -8 -23 -15 -7 -11
26 4 108 27 140 23 32 30 32 21 -1z m-1897 -50 c-12 -11 -17 7 -9 34 l8 29 3
-28 c2 -16 1 -31 -2 -35z m-3669 -3 c-13 -30 -15 -31 -14 -9 0 14 5 31 10 38
17 22 19 6 4 -29z m1903 -14 c0 -8 -2 -15 -4 -15 -2 0 -6 7 -10 15 -3 8 -1 15
4 15 6 0 10 -7 10 -15z m-1949 -28 c-10 -9 -11 -8 -5 6 3 10 9 15 12 12 3 -3
0 -11 -7 -18z m3750 -58 c-16 -53 -25 -44 -16 16 5 32 11 43 18 36 7 -7 7 -23
-2 -52z m63 36 c-4 -8 -8 -15 -10 -15 -2 0 -4 7 -4 15 0 8 4 15 10 15 5 0 7
-7 4 -15z m-3864 -35 c0 -11 -4 -20 -9 -20 -5 0 -7 9 -4 20 3 11 7 20 9 20 2
0 4 -9 4 -20z m55 -10 c-10 -11 -20 -18 -23 -16 -5 6 21 35 32 36 5 0 1 -9 -9
-20z m5255 10 c0 -5 -5 -10 -11 -10 -5 0 -7 5 -4 10 3 6 8 10 11 10 2 0 4 -4
4 -10z m269 -70 c-1 -24 -1 -24 -14 5 -8 17 -14 41 -14 55 1 24 1 24 14 -5 8
-16 14 -41 14 -55z m-1749 60 c0 -5 -5 -10 -11 -10 -5 0 -7 5 -4 10 3 6 8 10
11 10 2 0 4 -4 4 -10z m60 -13 c0 -13 -7 -32 -15 -43 -16 -21 -18 -12 -9 35 8
36 24 42 24 8z m1527 -24 c-3 -10 -5 -4 -5 12 0 17 2 24 5 18 2 -7 2 -21 0
-30z m-111 -10 c-11 -11 -19 6 -11 24 8 17 8 17 12 0 3 -10 2 -21 -1 -24z
m314 -11 c0 -28 -3 -33 -10 -22 -13 20 -13 73 0 65 6 -3 10 -23 10 -43z m-639
-9 c-10 -17 -10 -16 -11 3 0 23 13 41 18 25 2 -6 -1 -18 -7 -28z m374 17 c8
-26 -15 -104 -28 -91 -11 11 1 111 13 111 5 0 11 -9 15 -20z m-3395 -10 c0 -5
-4 -10 -10 -10 -5 0 -10 5 -10 10 0 6 5 10 10 10 6 0 10 -4 10 -10z m-1930 -9
c0 -6 -4 -13 -10 -16 -5 -3 -10 1 -10 9 0 9 5 16 10 16 6 0 10 -4 10 -9z m-39
-54 c-8 -8 -11 -5 -11 9 0 27 14 41 18 19 2 -9 -1 -22 -7 -28z m1929 3 c0 -5
-4 -10 -10 -10 -5 0 -10 5 -10 10 0 6 5 10 10 10 6 0 10 -4 10 -10z m3697 -27
c-3 -10 -5 -4 -5 12 0 17 2 24 5 18 2 -7 2 -21 0 -30z m-657 13 c0 -8 -4 -18
-10 -21 -5 -3 -10 3 -10 14 0 12 5 21 10 21 6 0 10 -6 10 -14z m-3060 -20 c0
-3 -4 -8 -10 -11 -5 -3 -10 -1 -10 4 0 6 5 11 10 11 6 0 10 -2 10 -4z m3279
-61 c0 -26 -2 -27 -9 -10 -5 11 -9 34 -9 50 0 26 2 27 9 10 5 -11 9 -33 9 -50z
m-299 45 c0 -5 -5 -10 -11 -10 -5 0 -7 5 -4 10 3 6 8 10 11 10 2 0 4 -4 4 -10z
m-622 -43 c-7 -14 -13 -17 -16 -9 -6 19 6 44 18 37 7 -4 6 -14 -2 -28z m352 8
c0 -8 -4 -15 -10 -15 -5 0 -10 7 -10 15 0 8 5 15 10 15 6 0 10 -7 10 -15z
m230 -45 c0 -20 -2 -22 -10 -10 -5 8 -10 26 -10 40 0 20 2 22 10 10 5 -8 10
-26 10 -40z m-841 -34 c-9 -8 -10 -7 -5 7 3 10 7 26 7 35 1 9 4 6 6 -7 3 -13
-1 -28 -8 -35z m621 13 c0 -18 -4 -28 -10 -24 -5 3 -10 20 -10 36 0 18 4 28
10 24 6 -3 10 -20 10 -36z m-103 9 c-3 -8 -6 -5 -6 6 -1 11 2 17 5 13 3 -3 4
-12 1 -19z m143 -10 c-1 -28 -2 -30 -11 -15 -6 10 -8 25 -5 33 9 24 16 16 16
-18z m-399 -5 c-8 -15 -10 -15 -11 -2 0 17 10 32 18 25 2 -3 -1 -13 -7 -23z
m-2381 -21 c0 -7 -4 -10 -10 -7 -5 3 -10 16 -10 28 0 18 2 19 10 7 5 -8 10
-21 10 -28z m2272 6 c-9 -9 -12 -7 -12 12 0 19 3 21 12 12 9 -9 9 -15 0 -24z
m68 16 c0 -8 -4 -12 -10 -9 -5 3 -10 10 -10 16 0 5 5 9 10 9 6 0 10 -7 10 -16z
m226 0 c-3 -9 -6 -23 -6 -32 0 -10 -3 -13 -10 -6 -11 11 -2 54 12 54 6 0 7 -7
4 -16z m-4526 -19 c0 -3 -9 -23 -20 -45 -11 -22 -20 -44 -20 -51 0 -6 -9 -22
-20 -36 l-20 -26 0 24 c0 40 18 91 42 116 20 22 38 30 38 18z m4247 -75 c1
-39 -1 -68 -6 -66 -13 9 -11 136 2 136 1 0 3 -32 4 -70z m87 55 c3 -8 1 -15
-4 -15 -6 0 -10 7 -10 15 0 8 2 15 4 15 2 0 6 -7 10 -15z m-4353 -68 c-10 -9
-11 -8 -5 6 3 10 9 15 12 12 3 -3 0 -11 -7 -18z m31 -19 c-7 -7 -12 -8 -12 -2
0 14 12 26 19 19 2 -3 -1 -11 -7 -17z m-22 -13 c0 -2 -18 -32 -40 -66 -37 -57
-40 -60 -40 -33 0 18 12 43 33 66 29 34 47 47 47 33z m1920 -42 c0 -5 -5 -15
-10 -23 -8 -12 -10 -11 -10 8 0 12 5 22 10 22 6 0 10 -3 10 -7z m-1959 -91
c-5 -10 -18 -25 -27 -33 -16 -12 -16 -10 1 19 20 33 43 46 26 14z m1909 -6 c0
-3 -4 -8 -10 -11 -5 -3 -10 -1 -10 4 0 6 5 11 10 11 6 0 10 -2 10 -4z m29 -87
c1 -4 -8 -9 -19 -12 -23 -6 -23 -7 -9 30 10 26 12 27 19 8 5 -11 9 -23 9 -26z
m-76 -214 c4 -8 2 -17 -3 -20 -6 -4 -10 3 -10 14 0 25 6 27 13 6z m-23 -35 c0
-5 -5 -10 -11 -10 -5 0 -7 5 -4 10 3 6 8 10 11 10 2 0 4 -4 4 -10z m-1930 -21
c0 -13 -111 -131 -118 -124 -9 9 93 135 110 135 4 0 8 -5 8 -11z m1940 -69 c0
-5 -5 -10 -11 -10 -5 0 -7 5 -4 10 3 6 8 10 11 10 2 0 4 -4 4 -10z m-1888 -22
c-7 -7 -12 -8 -12 -2 0 14 12 26 19 19 2 -3 -1 -11 -7 -17z m1932 -20 c-3 -13
-10 -24 -15 -26 -4 -2 -6 -16 -3 -32 5 -22 1 -31 -15 -39 -24 -13 -27 -4 -6
23 13 17 12 21 -3 32 -16 13 -15 14 6 20 16 5 21 12 17 25 -5 13 -1 19 10 19
12 0 15 -5 9 -22z m-1964 -15 c0 -21 -3 -24 -9 -14 -5 8 -7 20 -4 28 8 21 13
15 13 -14z m1941 -156 c-7 -35 -46 -55 -55 -30 -4 9 -1 21 5 27 8 8 13 8 16
-1 9 -25 21 -12 18 20 -2 17 0 36 3 41 9 16 19 -27 13 -57z m-1976 -167 c-36
-70 -42 -58 -8 16 14 32 28 53 30 47 2 -6 -8 -35 -22 -63z m1985 25 c0 -34
-12 -46 -25 -24 -9 14 3 59 15 59 6 0 10 -16 10 -35z m-1923 -117 c-3 -8 -6
-5 -6 6 -1 11 2 17 5 13 3 -3 4 -12 1 -19z m35 -10 c-7 -7 -12 -8 -12 -2 0 14
12 26 19 19 2 -3 -1 -11 -7 -17z m1913 -3 c-16 -14 -34 -25 -39 -25 -12 0 -3
9 31 31 40 25 43 22 8 -6z m-1944 -258 c-10 -9 -11 -8 -5 6 3 10 9 15 12 12 3
-3 0 -11 -7 -18z m4459 -98 c-12 -16 -25 -28 -27 -25 -8 8 25 56 38 56 6 0 1
-14 -11 -31z m180 -9 c-6 -11 -18 -20 -27 -20 -14 0 -14 2 2 20 10 11 22 20
27 20 5 0 4 -9 -2 -20z m-4686 -15 c-4 -8 -8 -15 -10 -15 -2 0 -4 7 -4 15 0 8
4 15 10 15 5 0 7 -7 4 -15z m4856 11 c0 -2 -8 -10 -17 -17 -16 -13 -17 -12 -4
4 13 16 21 21 21 13z m-4836 -70 c-11 -25 -23 -46 -28 -46 -4 0 -6 6 -3 14 3
8 11 34 17 57 8 29 15 38 22 31 7 -7 5 -24 -8 -56z m36 24 c-6 -12 -14 -19
-17 -17 -2 3 1 15 7 27 6 12 14 19 17 17 2 -3 -1 -15 -7 -27z m4735 1 c-3 -6
-11 -11 -17 -11 -6 0 -6 6 2 15 14 17 26 13 15 -4z m90 -31 c-3 -5 -12 -10
-18 -10 -7 0 -6 4 3 10 19 12 23 12 15 0z m135 6 c0 -3 -4 -8 -10 -11 -5 -3
-10 -1 -10 4 0 6 5 11 10 11 6 0 10 -2 10 -4z m90 -56 c0 -5 -5 -10 -11 -10
-5 0 -7 5 -4 10 3 6 8 10 11 10 2 0 4 -4 4 -10z m-862 -20 c-14 -22 -24 -19
-15 5 4 8 11 15 17 15 6 0 6 -7 -2 -20z m1152 -48 c0 -15 -28 -47 -35 -40 -8
8 13 48 25 48 6 0 10 -4 10 -8z m-5270 -27 c-7 -9 -15 -13 -18 -10 -3 2 1 11
8 20 7 9 15 13 18 10 3 -2 -1 -11 -8 -20z m5099 22 c-2 -1 -13 -9 -24 -17 -19
-14 -19 -14 -6 3 7 9 18 17 24 17 6 0 8 -1 6 -3z m-4989 -32 c0 -8 -4 -15 -10
-15 -5 0 -7 7 -4 15 4 8 8 15 10 15 2 0 4 -7 4 -15z m3941 -22 c-8 -15 -10
-15 -11 -2 0 17 10 32 18 25 2 -3 -1 -13 -7 -23z m-4091 -18 c-6 -15 -13 -26
-16 -23 -2 3 0 18 6 33 6 15 13 26 16 23 2 -3 0 -18 -6 -33z m5490 -14 c0 -14
-49 -68 -50 -55 0 11 38 64 46 64 2 0 4 -4 4 -9z m-5456 -72 c-9 -24 -21 -59
-27 -76 -7 -18 -16 -33 -21 -33 -17 0 5 102 32 143 32 48 41 31 16 -34z m5326
46 c-7 -9 -15 -13 -18 -10 -3 2 1 11 8 20 7 9 15 13 18 10 3 -2 -1 -11 -8 -20z
m-3427 -55 c-14 -16 -31 -30 -37 -30 -5 0 3 14 19 30 16 17 32 30 37 30 4 0
-4 -13 -19 -30z m3810 -4 c-10 -13 -20 -22 -22 -20 -4 4 29 44 36 44 2 0 -4
-11 -14 -24z m-5663 -54 c0 -5 -7 -17 -15 -28 -14 -18 -14 -17 -4 9 12 27 19
34 19 19z m5750 5 c0 -2 -14 -16 -32 -33 l-31 -29 22 33 c18 26 41 42 41 29z
m-119 -30 c-10 -9 -11 -8 -5 6 3 10 9 15 12 12 3 -3 0 -11 -7 -18z m-1730 -79
c-32 -62 -34 -81 -6 -58 23 19 18 6 -15 -43 -27 -41 -60 -76 -60 -64 0 15 31
76 42 81 9 4 10 8 2 11 -16 8 -7 39 30 104 40 73 46 48 7 -31z m69 65 c0 -5
-5 -15 -10 -23 -8 -12 -10 -11 -10 8 0 12 5 22 10 22 6 0 10 -3 10 -7z m-3910
-7 c0 -3 -4 -8 -10 -11 -5 -3 -10 -1 -10 4 0 6 5 11 10 11 6 0 10 -2 10 -4z
m3868 -68 c-2 -6 -10 -14 -16 -16 -7 -2 -10 2 -6 12 7 18 28 22 22 4z m1747 2
c-3 -5 -12 -10 -18 -10 -7 0 -6 4 3 10 19 12 23 12 15 0z m-5582 -87 c-8 -52
-13 -54 -13 -5 0 23 4 42 9 42 6 0 7 -17 4 -37z m57 -47 c0 -3 -4 -8 -10 -11
-5 -3 -10 -1 -10 4 0 6 5 11 10 11 6 0 10 -2 10 -4z m3656 -22 c-4 -9 -9 -15
-11 -12 -3 3 -3 13 1 22 4 9 9 15 11 12 3 -3 3 -13 -1 -22z m-3665 -41 c-12
-20 -14 -14 -5 12 4 9 9 14 11 11 3 -2 0 -13 -6 -23z m94 8 c3 -5 1 -12 -5
-16 -5 -3 -10 1 -10 9 0 18 6 21 15 7z m-43 -61 c-2 -17 -9 -33 -15 -37 -7 -4
-8 5 -4 27 4 18 7 40 7 49 0 12 2 13 8 3 5 -7 6 -26 4 -42z m3564 -12 c-11
-15 -16 -18 -16 -7 0 16 21 42 28 34 2 -2 -3 -14 -12 -27z m-3466 -42 c0 -3
-4 -8 -10 -11 -5 -3 -10 -1 -10 4 0 6 5 11 10 11 6 0 10 -2 10 -4z m-130 -13
c0 -5 -5 -15 -10 -23 -8 -12 -10 -11 -10 8 0 12 5 22 10 22 6 0 10 -3 10 -7z
m51 -140 c-16 -29 -24 8 -9 43 l12 29 4 -27 c2 -15 -1 -35 -7 -45z m99 7 c0
-11 -4 -20 -10 -20 -5 0 -10 9 -10 20 0 11 5 20 10 20 6 0 10 -9 10 -20z
m1960 6 c0 -3 -4 -8 -10 -11 -5 -3 -10 -1 -10 4 0 6 5 11 10 11 6 0 10 -2 10
-4z m-2070 -50 c0 -8 -7 -19 -15 -26 -12 -10 -15 -10 -15 3 0 25 11 47 21 41
5 -3 9 -11 9 -18z m80 -1 c0 -21 -17 -27 -24 -9 -10 25 -7 34 9 28 8 -4 15
-12 15 -19z m5310 1 c0 -13 2 -31 5 -38 4 -9 -2 -14 -14 -15 -23 -2 -31 23
-17 55 12 29 26 28 26 -2z m-3081 11 c-2 -2 -17 -11 -34 -21 l-30 -17 24 20
c13 12 28 21 34 21 6 0 8 -1 6 -3z m-2189 -17 c0 -5 -4 -10 -10 -10 -5 0 -10
5 -10 10 0 6 5 10 10 10 6 0 10 -4 10 -10z m3020 -65 c-7 -9 -15 -13 -17 -11
-7 7 7 26 19 26 6 0 6 -6 -2 -15z m-490 -45 c-6 -11 -15 -20 -20 -20 -6 0 -5
9 2 20 7 11 16 20 21 20 4 0 3 -9 -3 -20z m-2473 -62 c-3 -7 -5 -2 -5 12 0 14
2 19 5 13 2 -7 2 -19 0 -25z m5153 5 c-1 -24 -2 -26 -11 -10 -5 9 -7 22 -4 27
10 17 15 11 15 -17z m-44 -40 c-10 -10 -19 5 -10 18 6 11 8 11 12 0 2 -7 1
-15 -2 -18z m-5103 -73 c6 -46 -5 -103 -24 -124 -13 -15 -22 61 -14 130 5 51
9 63 19 54 7 -5 16 -33 19 -60z m144 48 c-3 -8 -6 -5 -6 6 -1 11 2 17 5 13 3
-3 4 -12 1 -19z m-56 -201 c-8 -8 -11 0 -10 29 1 39 1 39 11 11 7 -21 7 -32
-1 -40z m99 -11 c0 -8 -4 -18 -10 -21 -5 -3 -10 3 -10 14 0 12 5 21 10 21 6 0
10 -6 10 -14z m-90 -26 c0 -5 -5 -10 -11 -10 -5 0 -7 5 -4 10 3 6 8 10 11 10
2 0 4 -4 4 -10z m40 6 c0 -3 -4 -8 -10 -11 -5 -3 -10 -1 -10 4 0 6 5 11 10 11
6 0 10 -2 10 -4z m17 -48 c-3 -7 -5 -2 -5 12 0 14 2 19 5 13 2 -7 2 -19 0 -25z
m83 -57 c0 -6 -4 -13 -10 -16 -5 -3 -10 1 -10 9 0 9 5 16 10 16 6 0 10 -4 10
-9z m-30 -33 c0 -19 -18 -43 -25 -36 -9 9 4 48 16 48 5 0 9 -6 9 -12z m4607
-60 c-3 -8 -6 -5 -6 6 -1 11 2 17 5 13 3 -3 4 -12 1 -19z m-4600 -10 c-3 -8
-6 -5 -6 6 -1 11 2 17 5 13 3 -3 4 -12 1 -19z m193 -97 c0 -16 -7 -34 -15 -41
-13 -11 -15 -8 -15 13 0 32 9 57 21 57 5 0 9 -13 9 -29z m4260 19 c0 -5 -4
-10 -10 -10 -5 0 -10 5 -10 10 0 6 5 10 10 10 6 0 10 -4 10 -10z m-4190 -56
c0 -8 -4 -12 -10 -9 -5 3 -10 10 -10 16 0 5 5 9 10 9 6 0 10 -7 10 -16z m-69
-40 c-7 -24 -10 -26 -16 -11 -4 10 -2 24 5 32 18 21 21 14 11 -21z m369 -118
c0 -7 -7 -19 -15 -26 -9 -8 -15 -9 -15 -2 0 6 5 14 10 17 6 4 8 11 5 16 -4 5
-1 9 4 9 6 0 11 -6 11 -14z m3594 -1 c3 -8 1 -15 -4 -15 -6 0 -10 7 -10 15 0
8 2 15 4 15 2 0 6 -7 10 -15z m-28 -41 c5 -26 3 -39 -7 -45 -20 -12 -29 11
-22 54 7 44 20 40 29 -9z m-3626 -45 c0 -5 -4 -9 -10 -9 -5 0 -10 7 -10 16 0
8 5 12 10 9 6 -3 10 -10 10 -16z m3490 12 c0 -6 -4 -13 -10 -16 -5 -3 -10 1
-10 9 0 9 5 16 10 16 6 0 10 -4 10 -9z m-3360 -82 c0 -6 -4 -7 -10 -4 -5 3
-10 11 -10 16 0 6 5 7 10 4 6 -3 10 -11 10 -16z m3380 -35 c0 -8 -4 -12 -10
-9 -5 3 -10 13 -10 21 0 8 5 12 10 9 6 -3 10 -13 10 -21z m-3180 -4 c0 -5 -4
-10 -10 -10 -5 0 -10 5 -10 10 0 6 5 10 10 10 6 0 10 -4 10 -10z m2977 -12
c-3 -8 -6 -5 -6 6 -1 11 2 17 5 13 3 -3 4 -12 1 -19z m-2994 -34 c-9 -23 -23
-16 -23 12 0 22 2 24 14 14 8 -6 12 -18 9 -26z m2816 9 c0 -25 -1 -25 -8 -8
-5 11 -7 23 -4 28 8 14 13 7 12 -20z m-63 -29 c-4 -9 -9 -15 -11 -12 -3 3 -3
13 1 22 4 9 9 15 11 12 3 -3 3 -13 -1 -22z m-266 -41 c0 -5 -8 -17 -17 -28
-14 -18 -15 -18 -9 -2 3 10 6 23 6 28 0 5 5 9 10 9 6 0 10 -3 10 -7z m-2136
-74 c7 -37 -4 -62 -15 -33 -11 27 -11 64 0 64 5 0 11 -14 15 -31z m2086 6 c0
-8 -4 -15 -10 -15 -5 0 -10 7 -10 15 0 8 5 15 10 15 6 0 10 -7 10 -15z m97
-27 c-3 -8 -6 -5 -6 6 -1 11 2 17 5 13 3 -3 4 -12 1 -19z m-1980 -20 c-3 -7
-5 -2 -5 12 0 14 2 19 5 13 2 -7 2 -19 0 -25z m153 6 c0 -8 -4 -12 -10 -9 -5
3 -10 13 -10 21 0 8 5 12 10 9 6 -3 10 -13 10 -21z m1770 -17 c0 -24 -3 -28
-10 -17 -13 20 -13 63 0 55 6 -3 10 -21 10 -38z m30 -8 c0 -24 -4 -38 -10 -34
-17 10 -11 75 7 75 2 0 3 -18 3 -41z m-1690 21 c0 -5 -5 -10 -11 -10 -5 0 -7
5 -4 10 3 6 8 10 11 10 2 0 4 -4 4 -10z m1410 -42 c0 -21 -3 -29 -10 -22 -5 5
-7 19 -4 32 9 31 14 27 14 -10z m-1280 0 c0 -18 -2 -20 -9 -8 -6 8 -7 18 -5
22 9 14 14 9 14 -14z m840 -4 c0 -8 -4 -14 -10 -14 -5 0 -10 9 -10 21 0 11 5
17 10 14 6 -3 10 -13 10 -21z m614 -43 c9 -35 15 -66 12 -68 -7 -8 -36 78 -36
109 0 43 5 34 24 -41z m-1525 -1 c0 -8 -6 -4 -13 10 -8 14 -12 29 -8 34 6 10
20 -20 21 -44z m375 35 c-4 -8 -1 -15 6 -15 6 0 8 -5 4 -11 -5 -8 -10 -6 -16
5 -5 9 -6 21 -3 26 9 15 15 12 9 -5z m1053 -7 c-3 -8 -6 -5 -6 6 -1 11 2 17 5
13 3 -3 4 -12 1 -19z m-1097 0 c-1 -7 -7 -26 -15 -43 l-13 -30 -1 43 c-1 31 3
42 14 42 8 0 15 -6 15 -12z m740 -14 c6 -14 7 -31 3 -37 -7 -12 -21 16 -22 46
-1 25 8 21 19 -9z m-643 -16 c-3 -7 -5 -2 -5 12 0 14 2 19 5 13 2 -7 2 -19 0
-25z m907 -33 c5 -49 5 -49 -9 -20 -8 17 -14 43 -15 60 0 46 17 16 24 -40z
m-1577 18 c-3 -10 -5 -4 -5 12 0 17 2 24 5 18 2 -7 2 -21 0 -30z m883 5 c0
-36 -10 -32 -14 6 -2 14 1 26 5 26 5 0 9 -14 9 -32z m-400 0 c0 -19 -2 -20
-10 -8 -13 19 -13 30 0 30 6 0 10 -10 10 -22z m-114 -25 c-11 -11 -19 6 -11
24 8 17 8 17 12 0 3 -10 2 -21 -1 -24z m284 -9 c0 -13 -4 -24 -10 -24 -5 0
-10 14 -10 31 0 17 4 28 10 24 6 -3 10 -17 10 -31z m62 -18 c-9 -18 -11 -16
-11 19 0 33 1 37 10 21 8 -12 8 -25 1 -40z m238 37 c0 -10 -5 -25 -10 -33 -7
-11 -10 -7 -10 18 0 17 5 32 10 32 6 0 10 -8 10 -17z m124 -8 c3 -8 1 -15 -4
-15 -6 0 -10 7 -10 15 0 8 2 15 4 15 2 0 6 -7 10 -15z m145 8 c0 -5 -4 -17 -9
-28 -8 -18 -9 -17 -9 8 -1 15 4 27 9 27 6 0 10 -3 9 -7z m-252 -50 c-3 -10 -5
-2 -5 17 0 19 2 27 5 18 2 -10 2 -26 0 -35z"/>
<path d="M3649 6833 c-13 -16 -12 -17 4 -4 16 13 21 21 13 21 -2 0 -10 -8 -17
-17z"/>
<path d="M3453 6803 c-12 -12 -18 -25 -14 -28 8 -4 47 44 39 49 -2 1 -13 -8
-25 -21z"/>
<path d="M3145 6790 c-10 -11 -14 -20 -8 -20 5 0 18 9 28 20 10 11 14 20 8 20
-5 0 -18 -9 -28 -20z"/>
<path d="M2646 6763 c-6 -14 -5 -15 5 -6 7 7 10 15 7 18 -3 3 -9 -2 -12 -12z"/>
<path d="M2539 6673 c-13 -16 -12 -17 4 -4 9 7 17 15 17 17 0 8 -8 3 -21 -13z"/>
<path d="M5188 6644 c-38 -20 -36 -28 2 -9 17 9 30 18 30 20 0 7 -1 6 -32 -11z"/>
<path d="M5430 6555 c-7 -9 -11 -17 -9 -20 3 -2 10 5 17 15 14 24 10 26 -8 5z"/>
<path d="M2077 6533 c-4 -3 -7 -11 -7 -17 0 -6 5 -5 12 2 6 6 9 14 7 17 -3 3
-9 2 -12 -2z"/>
<path d="M1414 6018 c-31 -34 -67 -81 -47 -63 21 20 85 95 81 95 -2 0 -18 -15
-34 -32z"/>
<path d="M1215 5779 c-4 -6 -5 -12 -2 -15 2 -3 7 2 10 11 7 17 1 20 -8 4z"/>
<path d="M6105 5740 c-3 -5 -2 -10 4 -10 5 0 13 5 16 10 3 6 2 10 -4 10 -5 0
-13 -4 -16 -10z"/>
<path d="M1156 5675 c-9 -26 -7 -32 5 -12 6 10 9 21 6 23 -2 3 -7 -2 -11 -11z"/>
<path d="M6195 5670 c-8 -13 5 -13 25 0 13 8 13 10 -2 10 -9 0 -20 -4 -23 -10z"/>
<path d="M6319 5638 c-12 -23 -12 -23 10 -4 23 21 26 26 11 26 -5 0 -15 -10
-21 -22z"/>
<path d="M1008 5488 c-38 -45 -106 -142 -174 -248 l-16 -25 22 25 c18 21 21
22 15 5 -10 -29 -18 -85 -13 -85 2 0 15 15 28 33 14 18 16 26 7 18 -11 -8 -17
-9 -17 -3 0 23 48 118 68 135 11 11 18 25 16 32 -3 7 22 47 56 89 69 87 74
102 8 24z"/>
<path d="M6300 5450 c-18 -12 -2 -12 25 0 13 6 15 9 5 9 -8 0 -22 -4 -30 -9z"/>
<path d="M6470 5325 c-14 -8 -20 -14 -14 -15 5 0 19 7 30 15 24 18 16 19 -16
0z"/>
<path d="M6483 5219 c-34 -22 -40 -29 -24 -29 10 0 70 49 61 50 -3 0 -20 -10
-37 -21z"/>
<path d="M789 5068 c-17 -35 -41 -73 -52 -86 -16 -17 -17 -21 -6 -17 13 5 16
1 13 -22 -3 -19 0 -16 9 12 7 22 18 49 24 60 22 43 52 115 48 115 -3 0 -19
-28 -36 -62z"/>
<path d="M3161 5104 c0 -11 3 -14 6 -6 3 7 2 16 -1 19 -3 4 -6 -2 -5 -13z"/>
<path d="M3228 5070 c2 -16 7 -30 11 -30 4 0 6 14 3 30 -2 17 -7 30 -11 30 -4
0 -6 -13 -3 -30z"/>
<path d="M809 5053 c-13 -16 -12 -17 4 -4 9 7 17 15 17 17 0 8 -8 3 -21 -13z"/>
<path d="M734 4875 c-15 -20 -25 -37 -23 -39 2 -2 16 14 31 35 35 49 28 51 -8
4z"/>
<path d="M6102 4675 c0 -16 2 -22 5 -12 2 9 2 23 0 30 -3 6 -5 -1 -5 -18z"/>
<path d="M5743 4590 c0 -25 2 -35 4 -22 2 12 2 32 0 45 -2 12 -4 2 -4 -23z"/>
<path d="M4880 4531 c0 -5 5 -13 10 -16 6 -3 10 -2 10 4 0 5 -4 13 -10 16 -5
3 -10 2 -10 -4z"/>
<path d="M5562 4515 c0 -16 2 -22 5 -12 2 9 2 23 0 30 -3 6 -5 -1 -5 -18z"/>
<path d="M5571 4470 c0 -8 4 -24 9 -35 5 -13 9 -14 9 -5 0 8 -4 24 -9 35 -5
13 -9 14 -9 5z"/>
<path d="M502 3738 c-48 -70 -105 -197 -82 -183 4 3 11 18 15 35 3 16 28 65
55 110 52 87 58 105 12 38z"/>
<path d="M436 3693 c-6 -14 -5 -15 5 -6 7 7 10 15 7 18 -3 3 -9 -2 -12 -12z"/>
<path d="M582 3140 c0 -14 2 -19 5 -12 2 6 2 18 0 25 -3 6 -5 1 -5 -13z"/>
<path d="M4880 3142 c0 -10 -7 -27 -15 -38 -8 -10 -15 -23 -15 -29 0 -14 28
28 40 59 6 17 6 26 0 26 -6 0 -10 -8 -10 -18z"/>
<path d="M5306 3125 c-11 -8 -15 -15 -9 -15 6 0 16 7 23 15 16 19 11 19 -14 0z"/>
<path d="M5764 2995 c-10 -8 -14 -15 -8 -15 5 0 19 7 30 15 10 8 14 15 8 15
-5 0 -19 -7 -30 -15z"/>
<path d="M6270 2787 c-14 -7 -26 -18 -28 -25 -1 -7 10 -4 28 9 41 31 41 35 0
16z"/>
<path d="M4606 2555 c-9 -26 -7 -32 5 -12 6 10 9 21 6 23 -2 3 -7 -2 -11 -11z"/>
<path d="M6556 2465 c-9 -26 -7 -32 5 -12 6 10 9 21 6 23 -2 3 -7 -2 -11 -11z"/>
<path d="M6550 2334 c0 -21 5 -46 11 -54 7 -11 8 -1 3 35 -8 62 -14 70 -14 19z"/>
<path d="M6516 2335 c-11 -8 -15 -15 -9 -15 6 0 16 7 23 15 16 19 11 19 -14 0z"/>
<path d="M3620 2020 c-9 -6 -10 -10 -3 -10 6 0 15 5 18 10 8 12 4 12 -15 0z"/>
<path d="M3764 1998 l-19 -23 23 19 c21 18 27 26 19 26 -2 0 -12 -10 -23 -22z"/>
<path d="M6153 1525 c0 -22 2 -30 4 -17 2 12 2 30 0 40 -3 9 -5 -1 -4 -23z"/>
<path d="M5982 1290 c0 -14 2 -19 5 -12 2 6 2 18 0 25 -3 6 -5 1 -5 -13z"/>
<path d="M5996 1230 c4 -19 19 -62 35 -95 32 -66 30 -57 -13 55 -15 41 -25 59
-22 40z"/>
<path d="M1671 1074 c0 -11 3 -14 6 -6 3 7 2 16 -1 19 -3 4 -6 -2 -5 -13z"/>
<path d="M5551 904 c0 -11 3 -14 6 -6 3 7 2 16 -1 19 -3 4 -6 -2 -5 -13z"/>
<path d="M5241 743 c-1 -19 39 -122 51 -129 6 -4 5 3 -2 16 -7 12 -20 46 -30
74 -10 28 -19 46 -19 39z"/>
<path d="M5215 713 c9 -37 66 -156 71 -150 3 2 -4 20 -14 38 -11 19 -27 58
-37 87 -17 54 -32 72 -20 25z"/>
<path d="M4761 504 c0 -11 3 -14 6 -6 3 7 2 16 -1 19 -3 4 -6 -2 -5 -13z"/>
<path d="M4730 469 c0 -20 35 -122 50 -146 10 -16 11 -16 6 2 -13 48 -56 159
-56 144z"/>
<path d="M4348 409 c2 -30 8 -60 12 -68 4 -7 5 11 2 40 -2 30 -8 60 -12 68 -4
7 -5 -11 -2 -40z"/>
<path d="M2892 430 c0 -14 2 -19 5 -12 2 6 2 18 0 25 -3 6 -5 1 -5 -13z"/>
<path d="M3180 385 c0 -5 5 -17 10 -25 5 -8 10 -10 10 -5 0 6 -5 17 -10 25 -5
8 -10 11 -10 5z"/>
</g>
</svg>
