<?xml version="1.0" standalone="no"?>
<!DOCTYPE svg PUBLIC "-//W3C//DTD SVG 20010904//EN"
 "http://www.w3.org/TR/2001/REC-SVG-20010904/DTD/svg10.dtd">
<svg version="1.0" xmlns="http://www.w3.org/2000/svg"
 width="512.000000pt" height="512.000000pt" viewBox="0 0 512.000000 512.000000"
 preserveAspectRatio="xMidYMid meet">

<g transform="translate(0.000000,512.000000) scale(0.100000,-0.100000)"
fill="#000000" stroke="none">
<path d="M2361 3805 c-207 -45 -395 -205 -510 -434 -170 -335 -220 -969 -112
-1394 82 -320 271 -544 532 -631 114 -38 207 -49 359 -43 168 7 261 30 400 99
93 45 116 63 200 147 101 101 160 196 193 308 l15 51 -40 17 c-22 9 -41 15
-42 13 -1 -2 -17 -26 -35 -55 -74 -119 -230 -231 -371 -268 -96 -26 -247 -24
-330 4 -200 68 -311 234 -377 566 -14 74 -18 142 -18 375 0 283 6 368 41 545
57 290 180 506 314 550 62 21 135 15 183 -13 79 -46 134 -168 123 -273 -7 -70
-37 -154 -67 -185 -22 -24 -22 -24 -3 -39 75 -60 207 -83 274 -48 100 52 117
261 35 429 -66 136 -218 243 -397 279 -95 18 -279 19 -367 0z"/>
</g>
</svg>
